<?xml version="1.0" encoding="UTF-8" standalone="no"?>
<!-- Created with Inkscape (http://www.inkscape.org/) -->

<svg
   xmlns:dc="http://purl.org/dc/elements/1.1/"
   xmlns:cc="http://creativecommons.org/ns#"
   xmlns:rdf="http://www.w3.org/1999/02/22-rdf-syntax-ns#"
   xmlns:svg="http://www.w3.org/2000/svg"
   xmlns="http://www.w3.org/2000/svg"
   xmlns:xlink="http://www.w3.org/1999/xlink"
   xmlns:sodipodi="http://sodipodi.sourceforge.net/DTD/sodipodi-0.dtd"
   xmlns:inkscape="http://www.inkscape.org/namespaces/inkscape"
   id="svg2912"
   version="1.1"
   inkscape:version="0.47 r22583"
   width="871.34833"
   height="451.97116"
   sodipodi:docname="Logo Naruto Shippūden.svg">
  <metadata
     id="metadata2918">
    <rdf:RDF>
      <cc:Work
         rdf:about="">
        <dc:format>image/svg+xml</dc:format>
        <dc:type
           rdf:resource="http://purl.org/dc/dcmitype/StillImage" />
        <dc:title />
      </cc:Work>
    </rdf:RDF>
  </metadata>
  <defs
     id="defs2916">
    <linearGradient
       id="linearGradient3902">
      <stop
         style="stop-color:#170a88;stop-opacity:1;"
         offset="0"
         id="stop3904" />
      <stop
         id="stop3918"
         offset="0.5"
         style="stop-color:#0784be;stop-opacity:1;" />
      <stop
         style="stop-color:#1ca2ce;stop-opacity:1;"
         offset="1"
         id="stop3906" />
    </linearGradient>
    <linearGradient
       id="linearGradient3846">
      <stop
         style="stop-color:#ffe100;stop-opacity:1;"
         offset="0"
         id="stop3848" />
      <stop
         style="stop-color:#d20000;stop-opacity:1;"
         offset="1"
         id="stop3850" />
    </linearGradient>
    <linearGradient
       inkscape:collect="always"
       xlink:href="#linearGradient3846"
       id="linearGradient3647"
       x1="34.632648"
       y1="172.79837"
       x2="182.82692"
       y2="172.79837"
       gradientUnits="userSpaceOnUse"
       gradientTransform="translate(-21.590522,-20.781246)" />
    <linearGradient
       inkscape:collect="always"
       xlink:href="#linearGradient3846"
       id="linearGradient3655"
       x1="168.4119"
       y1="174.0668"
       x2="301.39777"
       y2="174.0668"
       gradientUnits="userSpaceOnUse"
       gradientTransform="translate(-21.590522,-20.781246)" />
    <linearGradient
       inkscape:collect="always"
       xlink:href="#linearGradient3846"
       id="linearGradient3634"
       x1="278.06979"
       y1="167.45981"
       x2="485.54401"
       y2="167.45981"
       gradientUnits="userSpaceOnUse"
       gradientTransform="translate(0.00884138,-1.0890176e-8)" />
    <linearGradient
       inkscape:collect="always"
       xlink:href="#linearGradient3846"
       id="linearGradient3642"
       x1="428.19028"
       y1="157.92918"
       x2="561.49414"
       y2="157.92918"
       gradientUnits="userSpaceOnUse"
       gradientTransform="translate(0.00884138,-1.0890176e-8)" />
    <linearGradient
       inkscape:collect="always"
       xlink:href="#linearGradient3846"
       id="linearGradient3689"
       x1="584.07025"
       y1="182.18697"
       x2="695.58228"
       y2="182.18697"
       gradientUnits="userSpaceOnUse"
       gradientTransform="translate(-21.590522,-20.781246)" />
    <linearGradient
       inkscape:collect="always"
       xlink:href="#linearGradient3846"
       id="linearGradient3659"
       x1="656.66498"
       y1="164.88847"
       x2="801.42761"
       y2="164.88847"
       gradientUnits="userSpaceOnUse"
       gradientTransform="translate(0.00884138,-1.0890176e-8)" />
    <linearGradient
       inkscape:collect="always"
       xlink:href="#linearGradient3902"
       id="linearGradient3694"
       x1="469.89709"
       y1="282.11319"
       x2="469.89709"
       y2="427.76727"
       gradientUnits="userSpaceOnUse"
       gradientTransform="translate(0.00884138,-1.0890176e-8)" />
  </defs>
  <path
     style="fill:#e543a7;fill-opacity:1;stroke:#ffffff;stroke-width:4.5;stroke-miterlimit:4;stroke-opacity:1;stroke-dasharray:none"
     d="m 714.22198,2.2812541 c -81.8186,1.659394 -175.27647,34.5790829 -251.92155,60.7916579 0,0 14.30226,15.46971 14.30226,15.46971 39.19644,-16.624149 83.51505,-28.42065 125.35707,-35.790291 36.54818,-6.437235 76.90635,-15.869928 111.31331,1.03122 15.13641,7.435203 16.19891,17.747703 16.19891,24.160077 0,0 48.9375,5.18474 48.9375,5.18474 4.90794,-2.711576 8.97796,-12.756659 11,-17.597114 8.07141,-19.321712 -6.59548,-41.897733 -26.5,-47.0937499 -15.90351,-4.151566 -32.29746,-6.488663 -48.6875,-6.15625 z M 495.79857,103.8704 c 2.78769,-1.35202 6.86988,-3.74174 9.46615,-2.65165 0,0 5.53125,-20.972266 5.53125,-20.972266 -7.82344,0.50381 -18.46919,3.93067 -23.35876,7.74172 0,0 8.36136,15.882196 8.36136,15.882196 z m 94.82966,58.97335 c -8.27076,4.85595 -13.59375,8.375 -21.06211,15.73234 0,0 -2.53164,22.64266 -2.53164,22.64266 3.87054,-1.96434 19.01316,-10.19282 21.375,-14.625 0,0 2.21875,-23.75 2.21875,-23.75 z m -202.21875,28.375 c 0,0 15.21875,12.25 15.21875,12.25 5.78125,-2.80083 12.86495,-6.02154 18.03125,-10.03125 0,0 -3.25,-16.9375 -3.25,-16.9375 -7.73478,4.49887 -20,8.45949 -30,14.71875 z m 175.0625,27.9375 c 0,0 -1.625,19.46875 -1.625,19.46875 5.94839,-1.52236 22.73738,-10.68372 25.8125,-15.40625 l -2.21875,-17.4688 c -6.09375,2.52675 -21.48446,13.01179 -21.96875,13.4063 z m -358.13525,52.0625 c 4.13341,-3.87079 20.53031,-22.86266 23.07275,-25.35952 l -10,-18.07612 c 0,0 -13.07275,43.43564 -13.07275,43.43564 z m 123.07275,3.65381 c -4.47062,2.35826 -37.17157,-25.42158 -37.17157,-25.42158 0,0 -51.22907,22.46427 -51.22907,22.46427 -10,23.9896 20.71449,32.97776 44.57349,33.2778 27.37585,0.34428 98.50848,-18.44292 114.71103,-25.83046 0,0 -26.46614,-14.24111 -26.46614,-14.24111 -13.91906,3.34978 -30.42391,6.74086 -44.41774,9.75108 z M 35.409478,353.6875 c -5.5729,13.41149 -0.710775,29.38204 10.09375,38.84375 17.999837,15.76278 43.07853,17.69003 65.936652,18.33948 62.45472,1.77447 123.64954,-13.7829 183.26585,-30.63976 32.07773,-9.07017 63.70375,-19.01222 94.57875,-32.29347 5.28536,-2.27356 3.20537,-15.91445 -4.34375,-16.71875 -12.20819,-0.28668 -24.75395,7.37742 -36.24561,10.81779 -63.26478,18.94017 -128.26346,38.52141 -194.90677,35.56307 -18.77288,-0.83334 -40.04694,-4.8626 -52.56637,-20.38086 -3.980772,-4.93429 -6.846902,-13.93994 -6.312502,-20.09375 1.65276,-19.0322 32.781252,-57.25 43.500002,-65.90625 l -33.22247,-7.37111 C 76.199493,292.18481 51.193942,315.70133 35.409478,353.6875 z M 358.40948,308.08794 c -59.50384,14.63531 -144.19061,27.68032 -164.34315,-1.82751 -3.63769,-4.93764 1.68149,-18.05134 6.11552,-25.04168 0,0 -39.65105,-6.70711 -39.65105,-6.70711 -17.54657,16.70711 -34.5761,44.79055 -23.37132,63.95711 3.38885,5.79686 13.12398,11.39626 19.15625,13.25 41.37224,12.71383 85.2218,3.51791 126.50105,-4.94784 40.9008,-8.38813 119.03648,-33.60912 158.00707,-48.49202 l -24.97061,-10.78923 c -13.89357,4.90317 -43.02295,17.0514 -57.44376,20.59828 z m 305.5,-248.369187 c 15.29159,0.531388 24.26161,12.12551 34.5,21.500001 l -24.25,6.25 -10.25,-27.750001 z"
     id="path2961"
     sodipodi:nodetypes="cccssccssscccccccccccccccccccccccccccsccccsssscssssccsccccsssccscccc" />
  <path
     sodipodi:nodetypes="csssscssszzsssssssscssssscssssssssssssssssssssssssssssssssssssssssssssssssssssssszssssssssssssssssssssssscssssssssssssscssscssssssscccccccc"
     id="path3762"
     d="m 159.96359,41.841664 c -10.55711,2.732447 -10.18025,16.851889 -16.09375,24.71875 -6.62493,8.813288 -13.74053,17.5483 -16.40625,28.6875 -1.47265,6.153756 -1.44029,14.114396 -5.875,18.468746 -6.66446,6.54369 -2.85889,16.10541 -1.1875,23.5625 0.7062,3.15082 0.40688,6.44668 0.0937,9.65625 -4.41721,-9.34392 -7.21805,-20.93119 -1.78125,-30.6875 6.06487,-10.88336 6.36812,-26.681916 -3.75,-35.656246 -7.99751,-7.093438 -19.316232,-10.636793 -29.625002,-10.15625 -4.541,0.211679 -7.412273,8.133882 -10.937497,6.75 -3.525224,-1.383882 -5.572249,-4.548794 -8.645096,-6.581726 -3.072846,-2.032932 -8.491651,6.003912 -10.792404,9.987976 -7.141154,12.36587 -20.145119,24.630866 -17.46875,40.187496 2.526975,14.68827 -3.407966,28.674 -5.100016,43.08046 -1.380566,11.75442 -1.88362,24.77573 -5.147091,36.16954 -0.714118,2.49321 -3.136196,2.74995 -3.315393,6.46875 -0.228281,4.73741 0.569568,9.62858 -3.401808,13.53125 -5.053006,4.96558 1.550039,12.35956 -1.109835,19 -6.458182,16.12299 -2.543155,35.65904 7.167893,50.03125 4.387635,6.49364 5.867118,7.42981 11.820937,4.15834 7.472731,-5.40524 25.814455,-5.53208 31.835313,-13.22084 2.152568,-2.74888 -1.080656,-6.7952 0.5625,-8.625 3.869353,-4.30886 15.372107,-9.65625 10.937497,-16.9375 -1.6091,-2.64201 -2.96249,-4.75331 -1.65625,-7.78125 1.63352,-3.78656 1.06183,-13.55529 3.28125,-12 6.88728,4.82636 10.2841,23.51825 19.250002,33.25 5.17154,5.76754 11.28024,13.5428 19,14 7.41254,0.43901 13.55733,-6.70588 21.1875,-7.0625 3.17682,-0.14848 8.00432,-3.98556 10.09375,-1.59375 4.73302,5.41797 10.14683,10.15535 15.125,15.34375 4.8686,5.0742 12.42462,3.31005 18.5,0.59375 7.62326,-3.40836 20.8528,-2.86354 22.89477,-12.90864 1.66851,-8.20788 6.18787,-15.02638 7.65684,-23.38202 1.62806,-9.26053 1.86388,-21.07109 9.51089,-27.20934 2.3842,-1.9138 9.23814,-5.06004 9.6875,-2.75 2.50826,12.89424 -4.18,29.72953 2.44876,43.59271 4.68078,9.78923 6.20427,22.53624 14.70749,29.31354 5.95318,4.74485 12.30068,-4.03642 15.28125,-9.34375 4.9759,-8.86028 12.61125,-16.17587 19.37378,-24.04111 1.10157,-1.28119 2.36996,-4.19564 3.21997,-3.89639 1.12308,0.39539 2.00201,3.99214 3.19661,5.90453 5.87079,9.39832 14.64482,17.89793 25.52214,19.90797 14.40608,2.66212 25.46919,-11.25781 28.8125,-24.15625 0.83946,-3.23864 -0.21685,-9.21947 4.6946,-4.60501 9.77644,9.18525 21.47042,16.93029 33.37527,23.38458 6.91423,3.7486 13.74454,6.65375 20.78272,10.12344 9.73316,4.79827 30.97131,13.86909 42.31771,17.79558 15.94682,5.5185 34.08757,19.21828 49.60391,14.30685 7.75817,-2.45571 13.18114,-11.16969 13.14032,-22.65994 -0.0208,-5.56255 -0.84085,-8.54449 -4.26605,-14.59821 -3.37851,-5.97119 -10.57337,-9.56418 -5.17447,-7.9474 5.51232,1.65074 12.34216,20.53484 15.97428,18.25315 8.22789,-5.16872 22.93888,-10.13437 28.33296,-13.05304 2.99504,-1.62058 4.34629,-6.04592 7.46783,-10.04105 2.38355,-3.05059 6.62501,-5.35489 8.52009,-8.90723 2.31743,-4.34402 3.37499,-9.205 5.00192,-12.51938 2.86595,-5.83851 1.81109,-6.09146 -1.95859,-11.65734 -2.46526,-3.63992 1.1049,-8.49005 0.56247,-12.96777 -0.72676,-5.99935 1.87283,-11.56192 3.15628,-17.21973 0.5239,-2.30952 -0.73099,-5.52716 -0.44585,-7.875 0.97088,-7.99408 4.26825,-15.0131 5.2896,-23.09375 1.20766,-9.55471 5.81538,-18.119 7.96875,-27.40625 0.53739,-2.31772 3.77324,0.79731 5.84375,1.09375 4.69801,0.67263 9.37535,-2.73384 13.34375,-2 4.38102,0.81015 1.61504,8.03369 3.1875,11.96875 2.38005,5.95604 -2.45872,10.87218 -2.8379,16.93038 -0.74075,11.83497 -0.37003,23.83972 -1.97451,35.59373 -0.43694,3.20089 -1.53887,6.30475 -1.81259,9.53839 -0.72035,8.51017 0.42944,17.27846 1.0402,25.87881 0.61277,8.62865 -4.16361,19.94811 2.32352,25.45363 0,0 14.0356,14.0656 23.33927,19.80766 2.2994,1.41915 4.144,2.51973 8.08496,-0.58682 4.70161,-3.70615 16.79328,-12.24805 23.4153,-20.77304 3.64924,-4.69794 1.26386,-8.61475 6.349,-10.84878 2.62435,-1.15294 5.60334,-5.99309 9.54741,0.23641 5.80501,9.16878 12.79876,23.19758 40.21285,25.61338 12.63904,1.10185 25.59363,0.20918 36.90625,-4.71875 16.41735,-7.15162 28.50251,-20.58197 42.125,-31.6875 6.04491,-4.92803 6.71505,-13.54506 12.90625,-18.46875 17.65274,-14.03872 23.89757,-38.20891 24.625,-60.1875 0.80363,-24.28101 -4.62718,-49.4434 -20.34747,-68.43388 -6.14468,-7.422906 -14.81057,-15.602296 -20.21503,-20.503616 -5.40446,-4.901323 -9.25319,-1.52771 -13.41009,-2.58746 -3.55497,-0.9063 -5.50877,-2.468882 -9.21137,-2.771316 -4.60414,-0.376074 -10.93135,0.838625 -15.13552,3.109966 -3.9628,2.14094 -8.24819,2.78877 -12.71177,0.18631 -12.49391,-7.284493 -29.40652,1.04475 -37.3125,12.25 -2.4824,3.51834 -2.59767,1.32888 -3.6875,-1.5625 -2.52054,-6.68712 -4.52668,-13.40902 -10.91416,-16.006692 -5.59915,-2.277073 -13.90293,-6.428118 -19.40722,-8.574495 -4.32933,-1.688204 -10.9254,3.189411 -17.2359,1.885408 -9.41968,-1.946486 -18.73729,1.994039 -28.32309,2.703888 -10.74577,0.795749 -21.94858,1.130669 -31.76608,5.846364 -1.74856,0.839896 -3.43381,2.549437 -5.47851,-0.409772 -5.11642,-7.404791 -10.25971,-11.421725 -15.09834,-17.475951 -3.92439,-4.9103 -19.73145,6.877834 -28.3079,9.90625 -13.91151,4.912275 -15.37406,23.25521 -19.28125,35.999996 -8.5531,27.89922 -12.82048,67.59615 -22.4375,84.625 -1.58328,2.8035 -2.31056,-5.22514 -1.68806,-12.38615 0.25035,-2.87984 1.16161,-5.51898 1.43806,-7.4576 0.92614,-6.49462 -1.82845,-12.81223 0.52908,-19.5313 5.55532,-15.83289 5.50995,-33.87753 -0.96658,-49.81245 -1.95342,-4.806216 -6.03494,-8.664696 -7.65625,-13.124996 -3.26605,-8.98502 -14.77336,-9.158522 -22.04459,-12.537532 -12.22529,-5.681218 -13.75714,-4.380457 -18.26792,2.318782 -4.2405,6.29782 -7.50382,13.17648 -10.8125,19.90625 -8.79842,-17.88633 -27.11905,-28.102453 -45.25418,-34.676672 -18.95832,-6.872635 -39.95647,-14.765604 -59.93332,-9.260828 -20.09958,5.538595 -36.05055,24.431472 -38.5625,45.40625 -0.36156,3.019026 -0.47595,4.178246 -1.53125,0.53125 -0.75609,-2.61296 -2.28047,-4.72758 -4.16463,-6.48302 -1.98608,-1.8504 -6.52702,-2.91641 -6.67912,-4.51698 -0.17295,-1.82 5.31859,-5.7243 5.86081,-8.90625 0.70492,-4.136731 -2.18531,-7.797904 -6.20456,-10.1875 -9.54251,-5.673393 -16.64399,-19.457617 -28.9375,-17.71875 -9.77233,1.382257 -17.31376,9.106445 -25.78125,13.875 -6.59446,3.71374 -9.62783,11.78062 -16.90625,15.21875 -8.26315,3.90329 -13.00898,13.3184 -16.4375,21.593746 -1.8125,4.37479 3.71659,7.16385 1.65744,11.95031 -5.65296,13.14023 -8.74263,27.47607 -14.09494,40.86219 1.82248,-20.48833 4.02806,-41.10373 6.125,-61.437496 1.77704,-17.231721 -13.0562,-30.165852 -20.03125,-44.96875 -1.61574,-3.429025 -5.28116,-8.394147 -9.21875,-7.375 z M 757.36984,152.62291 c 6.01475,0.88421 2.27599,10.30013 3.71875,15 1.73148,5.64041 2.15795,11.78282 -1.28125,17.34375 -5.97504,9.66118 -6.34121,23.87116 -17.23138,30.20183 -2.36331,1.37384 -6.9699,6.64239 -7.76862,4.82942 -2.61155,-5.92785 1.06109,-14.53581 1.0294,-21.99957 -0.048,-11.30098 5.33277,-22.0746 5.3456,-33.59418 0.008,-7.3299 9.6491,-12.74245 16.1875,-11.78125 z m -325.0625,8.0625 c 0.84017,12.29571 0.32624,24.66765 -0.5625,36.84375 0.48446,11.50179 2.78903,22.82923 5.84375,33.90625 -16.83881,-13.65527 -35.59056,-26.59227 -51.5,-40.28125 11.8198,-5.5361 21.59095,-14.43836 33.14874,-20.48586 4.70556,-3.07167 9.24789,-6.52198 13.03876,-10.63914 l 0.0312,0.65625 5e-5,0 z"
     style="fill:#000000;fill-opacity:1;stroke:none" />
  <path
     style="fill:#000000;fill-opacity:1;stroke:none"
     d="m 144.44634,22.90625 c -0.24354,0.01878 -0.47265,0.0613 -0.71875,0.125 -10.55711,2.732447 -10.18025,16.851889 -16.09375,24.71875 -6.62493,8.813288 -13.74053,17.548295 -16.40625,28.6875 -1.47265,6.15376 -1.44029,14.1144 -5.875,18.46875 -6.664462,6.54369 -2.85889,16.10541 -1.1875,23.5625 0.7062,3.15082 0.40693,6.44668 0.0937,9.65625 -4.417212,-9.34392 -7.218052,-20.93119 -1.78125,-30.6875 6.06487,-10.88336 6.36812,-26.681918 -3.749999,-35.65625 -7.99751,-7.093438 -19.31623,-10.636793 -29.625,-10.15625 -4.541006,0.211679 -7.412276,8.133882 -10.9375,6.75 -3.525224,-1.383882 -5.583403,-4.560818 -8.65625,-6.59375 -3.072846,-2.032932 -8.480497,6.015936 -10.78125,10 -7.141154,12.365868 -20.145119,24.630874 -17.46875,40.1875 2.526975,14.68827 -3.4017,28.68729 -5.09375,43.09375 -1.380566,11.75442 -1.892779,24.76244 -5.15625,36.15625 -0.714118,2.49321 -3.1333026,2.74995 -3.3124996,6.46875 -0.228281,4.73741 0.565126,9.62858 -3.40625,13.53125 -5.053006,4.96558 1.534874,12.35956 -1.125,19 -6.458182,16.12299 -2.5235478,35.65904 7.1874996,50.03125 4.387635,6.49364 5.858681,7.42772 11.8125,4.15625 7.472731,-5.40524 25.822892,-5.52999 31.84375,-13.21875 2.152568,-2.74888 -1.080656,-6.7952 0.5625,-8.625 3.869353,-4.30886 15.372103,-9.65625 10.9375,-16.9375 -1.6091,-2.64201 -2.962498,-4.75331 -1.65625,-7.78125 1.633516,-3.78656 1.061825,-13.55529 3.28125,-12 6.887277,4.82636 10.284099,23.51825 19.25,33.25 5.17154,5.76754 11.280237,13.5428 18.999999,14 7.41254,0.43901 13.55733,-6.70588 21.1875,-7.0625 3.17682,-0.14848 8.00432,-3.98556 10.09375,-1.59375 4.73302,5.41797 10.14683,10.15535 15.125,15.34375 4.8686,5.0742 12.42462,3.31005 18.5,0.59375 7.62326,-3.40836 20.83303,-2.86115 22.875,-12.90625 1.66851,-8.20788 6.18728,-15.01936 7.65625,-23.375 1.62806,-9.26053 1.88424,-21.0805 9.53125,-27.21875 2.3842,-1.9138 9.23814,-5.06004 9.6875,-2.75 2.50826,12.89424 -4.19126,29.73057 2.4375,43.59375 4.68078,9.78923 6.21553,22.5352 14.71875,29.3125 5.95318,4.74485 12.30068,-4.03642 15.28125,-9.34375 4.9759,-8.86028 12.61247,-16.16601 19.375,-24.03125 1.10157,-1.28119 2.36874,-4.2055 3.21875,-3.90625 1.12308,0.39539 1.9929,3.99386 3.1875,5.90625 5.87079,9.39832 14.65393,17.89621 25.53125,19.90625 14.40608,2.66212 25.46919,-11.25781 28.8125,-24.15625 0.83946,-3.23864 -0.22395,-9.20821 4.6875,-4.59375 9.77644,9.18525 21.47015,16.92071 33.375,23.375 6.91423,3.7486 14.89932,5.21781 21.9375,8.6875 6.35558,3.13319 12.82802,7.16898 19.84375,9 18.79337,8.17603 40.67819,23.45992 63.5625,24.65625 13.42871,-0.26268 24.69127,-13.49881 22.03125,-26.8125 -0.10967,-2.00632 -1.34805,-5.01969 -1.75,-6.09375 3.81661,5.06243 10.77132,6.53126 16.28125,3.3125 7.17926,-3.44809 16.27678,-5.53021 22.84375,-9.9375 5.73718,-4.08582 6.83743,-9.53182 11.15625,-15.34375 2.01604,-3.2949 3.68056,-6.81798 5.40625,-10.28125 2.86595,-5.83851 2.20718,-12.52787 -1.5625,-18.09375 -2.46526,-3.63992 1.10493,-8.49103 0.5625,-12.96875 -0.72676,-5.99935 1.8728,-11.56094 3.15625,-17.21875 0.5239,-2.30952 -0.72264,-5.52716 -0.4375,-7.875 0.97088,-7.99408 4.2599,-15.0131 5.28125,-23.09375 1.20766,-9.55471 5.81538,-18.119 7.96875,-27.40625 0.53739,-2.31772 3.77324,0.79731 5.84375,1.09375 4.69801,0.67263 9.37535,-2.73384 13.34375,-2 4.38102,0.81015 1.61504,8.03369 3.1875,11.96875 2.38005,5.95604 -2.46457,10.8793 -2.84375,16.9375 -0.74075,11.83497 -0.36427,23.83974 -1.96875,35.59375 -0.43694,3.20089 -1.53878,6.29761 -1.8125,9.53125 -0.72035,8.51017 0.42049,17.27465 1.03125,25.875 0.61277,8.62865 0.72649,17.10943 2.3125,25.46875 l 19.20032,17.02375 c 11.76487,10.43118 11.49809,6.15229 23.66027,-3.03086 5.04173,-3.80679 13.11603,-8.64846 17.70934,-13.63569 2.31832,-2.51714 -1.10847,-7.97949 4.76342,-11.0764 2.00317,-1.05649 4.90741,-2.01866 6.4985,1.29728 4.96571,10.3489 26.35644,21.65072 36.85945,23.75062 9.75509,1.95035 27.87113,-0.68202 39.18375,-5.60995 16.41735,-7.15162 28.50251,-20.58197 42.125,-31.6875 6.04491,-4.92803 6.71505,-13.54506 12.90625,-18.46875 17.65274,-14.03872 23.89757,-38.20891 24.625,-60.1875 0.80363,-24.28101 -4.62346,-49.44702 -20.34375,-68.4375 -6.14468,-7.422911 -14.81429,-15.598678 -20.21875,-20.5 -5.40446,-4.901323 -9.24935,-1.533995 -13.40625,-2.59375 -3.55497,-0.9063 -5.51615,-2.447566 -9.21875,-2.75 -4.60414,-0.376074 -10.92083,0.822407 -15.125,3.09375 -3.9628,2.140938 -8.25517,2.789958 -12.71875,0.1875 -12.49391,-7.284493 -29.40652,1.044755 -37.3125,12.25 -2.4824,3.518341 -2.59767,1.328876 -3.6875,-1.5625 -2.52054,-6.687124 -4.51877,-13.402328 -10.90625,-16 -5.59915,-2.277073 -13.90196,-6.447373 -19.40625,-8.59375 -4.32933,-1.688204 -10.9395,3.210253 -17.25,1.90625 -9.41968,-1.946486 -18.7267,1.977651 -28.3125,2.6875 -10.74577,0.795749 -21.96375,1.128055 -31.78125,5.84375 -1.74856,0.839896 -3.42405,2.552957 -5.46875,-0.40625 -5.11642,-7.404791 -10.25512,-11.414524 -15.09375,-17.46875 -3.92439,-4.9103 -19.73605,6.877834 -28.3125,9.90625 -13.91151,4.912275 -15.37406,23.255212 -19.28125,36 -8.5531,27.89922 -12.82048,67.59615 -22.4375,84.625 -1.58328,2.8035 -2.31,-5.21399 -1.6875,-12.375 0.25035,-2.87984 1.16105,-5.53013 1.4375,-7.46875 0.92614,-6.49462 -1.82628,-12.81218 0.53125,-19.53125 5.55532,-15.83289 5.50778,-33.87758 -0.96875,-49.8125 -1.95342,-4.80622 -6.03494,-8.664702 -7.65625,-13.125 -3.26605,-8.985023 -14.79127,-9.15224 -22.0625,-12.53125 -12.22529,-5.681218 -13.73922,-4.386739 -18.25,2.3125 -4.2405,6.297817 -7.50382,13.176482 -10.8125,19.90625 -8.79842,-17.886331 -27.11487,-28.113281 -45.25,-34.6875 -18.95832,-6.872635 -39.96065,-14.754776 -59.9375,-9.25 -20.09958,5.538595 -36.05055,24.431472 -38.5625,45.40625 -0.36156,3.01903 -0.47595,4.17825 -1.53125,0.53125 -0.75609,-2.612964 -2.27209,-4.713307 -4.15625,-6.46875 -1.98608,-1.8504 -6.5354,-2.930683 -6.6875,-4.53125 -0.17295,-1.819998 5.30153,-5.724305 5.84375,-8.90625 0.70492,-4.136731 -2.16825,-7.797904 -6.1875,-10.1875 -9.54251,-5.673393 -16.64399,-19.457617 -28.9375,-17.71875 -9.77233,1.382257 -17.31376,9.106445 -25.78125,13.875 -6.59446,3.71374 -9.62783,11.78062 -16.90625,15.21875 -8.26315,3.903292 -13.00898,13.318395 -16.4375,21.59375 -1.8125,4.37479 3.7154,7.15104 1.65625,11.9375 -5.65296,13.14023 -8.74144,27.48888 -14.09375,40.875 1.82248,-20.48833 4.02806,-41.10373 6.125,-61.4375 1.77704,-17.231721 -13.0562,-30.165852 -20.03125,-44.96875 -1.51476,-3.214711 -4.84691,-7.781709 -8.5,-7.5 z m 595.4375,110.8125 c 0.42978,0.0114 0.84135,0.0337 1.25,0.0937 6.01475,0.88421 2.27599,10.30013 3.71875,15 1.73148,5.64041 2.15795,11.78282 -1.28125,17.34375 -5.97504,9.66118 -6.35983,23.85683 -17.25,30.1875 -2.36331,1.37384 -6.95128,6.65672 -7.75,4.84375 -2.61155,-5.92785 1.06294,-14.53624 1.03125,-22 -0.048,-11.30098 5.33092,-22.07417 5.34375,-33.59375 0.008,-6.87178 8.49079,-12.04552 14.9375,-11.875 l 0,5e-5 z m -323.84375,7.5 0.0312,0.65625 c 0.84017,12.29571 0.32624,24.66765 -0.5625,36.84375 0.48446,11.50179 2.78903,22.82923 5.84375,33.90625 -16.83881,-13.65527 -35.59056,-26.59227 -51.5,-40.28125 11.8198,-5.5361 21.59846,-14.4525 33.15625,-20.5 4.70556,-3.07167 9.24038,-6.50784 13.03125,-10.625 l 5e-5,0 z"
     id="path3754"
     sodipodi:nodetypes="cssssscssssssssssssscssssscssssssssssssssssssssccccccccssssssssssssscssssssssssssssssssssssssssssssssssscssssssssssssscssccssssssscccccccccs" />
  <path
     style="fill:#ffffff;fill-opacity:1;stroke:none"
     d="m 144.25323,29.062504 c -2.74456,0.112485 -9.35571,21.760898 -15.46875,27.53125 -11.156,10.530606 -12.72056,26.68643 -16.78125,40.59375 -0.56308,1.92846 -4.04957,2.695 -4.6875,4.562496 -0.86247,2.52481 0.86813,8.43153 2.0625,12.5625 3.23791,11.199 -1.53563,23.13989 -1,34.59375 0.18732,4.00552 -0.57769,6.02225 -2.5625,-0.8125 -4.02769,-13.86952 -11.392882,-23.05277 -12.781252,-37.25 -1.08131,-11.057236 8.740692,-20.911786 7.562502,-32.124996 -0.603302,-5.741778 -3.793372,-11.349997 -8.218752,-14.5625 -5.20806,-3.780675 -12.56754,-4.746296 -19.53125,-6.875 -3.541686,-1.082642 -6.102148,4.861962 -11.71875,7.03125 -2.707532,1.045723 -4.944004,0.363015 -8.03125,-1.9375 -5.667135,-4.222964 -7.113459,-1.15625 -12.3125,6.90625 -6.499891,10.07981 -16.572198,20.70362 -13.40625,33.781246 2.528711,10.44538 -2.22908,20.11972 -3.46875,30.40625 -2.074475,17.21357 -5.5,32.36167 -7.78217,50.53309 -0.190522,1.517 -2.280894,3.30744 -2.581556,4.6221 -0.859373,3.75764 0.729722,8.3121 -1.073774,11.56356 -1.165054,2.10043 -3.8652014,3.87811 -4.0624994,6.10779 -0.475262,5.37098 3.2599234,5.61669 1.425857,10.89161 -1.539661,4.42819 -3.906204,13.58847 -3.904753,18.62581 0.003,10.41027 3.918076,22.65716 8.7897134,30.26404 2.045098,3.19334 3.484301,3.58341 5.869357,2.693 3.69876,-1.38085 14.304863,-5.62908 17.882325,-6.58225 1.914367,-0.51006 8.445335,-2.10271 9.9375,-3.36048 2.450939,-2.06595 -1.344749,-4.77403 0,-7.60827 1.306981,-2.75464 7.297726,-6.76027 10,-9.02773 3.92395,-3.29255 1.431215,-4.23025 -0.618718,-6.81066 -2.399131,-3.01996 0.286483,-6.95637 0.618718,-10.19102 1.02733,-10.00212 5.584166,-19.15131 6.490197,-22.14952 1.895668,-6.27311 3.669796,7.23845 8.728553,12.49143 4.498954,4.67168 7.74327,16.25578 12.68878,23.61978 3.93156,5.8542 8.82371,10.70751 14.515722,15.34269 3.57758,2.91332 4.37582,3.64354 7.57675,1.55606 4.44946,-2.90171 22.56409,-7.38968 26.49119,-8.48293 3.6134,-1.00592 4.08148,-3.73895 5.39009,-7.83516 1.0923,-3.41909 0.72625,1.41421 0.58752,4.64331 -0.11442,2.66337 -1.56459,4.66908 0.76769,6.84375 4.25602,3.9684 11.09084,11.1697 14.97391,14.60685 4.1781,3.6983 8.13285,0.068 13.0709,-1.5131 3.32318,-1.06403 11.63564,-2.57035 14.67046,-4.28991 4.32863,-2.45264 2.72427,-5.23478 4.36079,-10.21009 1.0742,-3.26576 3.08915,-5.33331 4.05365,-8.59375 3.41106,-11.5309 4.2351,-24.55384 9.57135,-34.99204 2.98983,-5.84837 12.70043,-7.39678 19.02878,-9.10794 2.38098,-0.6438 3.97096,0.27515 4.22122,2.19893 1.37365,10.55945 0.12565,15.98269 -1,25.4948 -1.65066,13.94858 7.57568,30.6884 12.84819,43.02297 2.81806,6.59261 5.20736,4.7236 7.98515,-0.16085 5.33972,-9.38931 19.62964,-25.27719 26.23661,-33.01668 2.29378,-2.68696 2.66028,-3.43919 2.3988,-6.59544 -0.31469,-3.79845 -0.27008,-7.74325 0.17682,-11.50344 0.43073,-3.62418 1.70622,-7.09241 2.72943,-10.65281 1.63092,-5.675 -0.66064,-14.07971 1.43745,-14.6875 2.21145,-0.64063 5.97941,7.78316 3.43755,14.03125 -5.17488,12.72022 -6.20566,29.23656 3.8125,40.46875 6.29273,7.0553 15.31594,16.79952 25.5625,13.34375 11.992,-4.04443 16.65535,-18.5491 17.4375,-29.875 0.59225,-8.57603 4.63443,-2.75525 8.3125,-0.0937 17.31488,12.52953 33.43792,28.02729 54.78125,33.0625 7.00549,1.6527 10.83533,6.97914 17.42877,10.10964 3.14604,1.49371 6.78615,0.55254 11.91498,2.39953 17.42949,6.27671 43.49568,22.33704 53.61401,21.86264 10.46128,-0.49048 17.11116,-7.14048 17.57161,-16.40928 0.72027,-14.49916 -15.02675,-18.35962 -15.15484,-20.93484 -0.13156,-2.6451 9.2439,-9.83492 12.6384,-9.83492 3.52824,0 10.71688,22.3054 17.19852,19.39127 12.16479,-5.46927 16.5741,-6.18439 23.56863,-10.1073 3.36509,-1.88732 3.51991,-6.54721 5.76929,-9.56239 2.32888,-3.12174 5.95826,-4.64203 8.16585,-7.99683 2.09659,-3.18612 2.80094,-8.17791 3.94103,-12.19877 0.81687,-2.88093 -4.29346,-5.55404 -4.34375,-9.6875 -0.0868,-7.13453 1.7667,-14.84046 1.21875,-21.9375 -0.2409,-3.12011 2.59499,-5.96533 3.125,-9.125 0.34547,-2.05953 -0.8664,-4.44829 -0.375,-6.4375 1.98727,-8.04457 3.99987,-16.07392 4.9375,-24.4375 1.42111,-12.6761 8.88383,-23.05553 9.375,-36.03125 0.20967,-5.53913 4.21422,0.2818 6.34375,1.5625 1.9993,1.20239 3.07001,3.00876 4.96875,3.25 5.55952,0.70635 11.75613,-3.41572 14.75,-2.03125 1.98269,0.91686 5.11517,4.63172 5.8125,7.21875 0.48659,1.80523 -0.59695,3.1811 0.0625,5 1.14149,3.14856 1.34816,6.99746 1.5,10.5 0.0773,1.78241 -1.929,4.55213 -2.3125,6.53125 -2.63325,13.58919 -1.67824,25.93374 -2.59375,39.71875 -0.30621,4.61038 -2.46875,7.35015 -2.46875,13.03125 0,16.4807 2.94957,28.58034 3.25451,45.60576 0.10075,5.62514 12.67153,11.62424 19.0094,17.43446 2.01673,1.84883 4.90521,1.27158 7.12921,-0.25791 7.1512,-4.91803 13.34695,-10.79151 19.28001,-16.92768 2.41626,-2.49897 2.51145,-8.11118 4.88736,-10.65049 3.41347,-3.64822 10.99327,-4.82146 10.99327,-7.81527 0,-2.16137 -12.67881,-1.87514 -12.67881,-6.42017 0,-10.46966 1.30004,-20.58313 2.25,-31.28125 2.22437,-25.05012 11.01252,-49.65354 11.84375,-75.09375 0.0813,-2.48745 -0.11059,-4.88876 3.375,-4.75 7.13865,0.28419 14.06473,-3.62045 18.21875,-9.53125 -2.98129,8.32817 -5.44715,16.66023 -7.625,25.34375 -3.46715,13.82425 -16.6674,25.08948 -18.4349,39.5625 -1.39496,11.42246 10.28324,17.34525 8.15365,31.6875 -1.82976,12.32303 0.23133,24.92089 6.87272,38.99136 4.15368,8.79998 15.54333,19.02421 33.47592,21.9725 10.43407,1.71546 23.46695,-0.93663 32.80485,-5.30853 15.98482,-6.8125 26.70331,-20.15749 40.79289,-30.6348 3.65689,-2.55243 4.05579,-7.62245 6.39737,-11.48464 2.41078,-3.97632 6.75628,-6.75718 10.03125,-10.19214 19.04521,-19.9756 21.28625,-50.4349 17.65625,-76.90625 -2.75585,-20.09673 -13.08304,-38.943676 -28.875,-51.843746 -3.12643,-2.553908 -6.25238,-7.801945 -9.87316,-9.391199 -2.71799,-1.192997 -4.31736,0.864493 -7.34743,0.557252 -2.8111,-0.285037 -6.38047,-2.85039 -9.05086,-3.041053 -2.67039,-0.190663 -6.1596,-0.5225 -8.01837,0.239277 -7.53785,3.089232 -10.42204,4.605998 -18.14952,5.354473 -2.37948,0.230473 -4.06794,-4.246853 -7.6106,-4.374208 -5.19575,-0.186782 -11.64239,-0.429375 -13.93106,1.061708 -6.86578,4.473115 -10.45513,6.446197 -15.30317,13.11576 -3.15186,4.3361 -4.18847,9.91363 -8.05958,13.91549 0.36143,-12.12602 -4.29062,-22.946179 -12.09375,-31.90625 -4.77629,-4.39969 -11.33066,-5.996497 -17.875,-7.40625 -2.88837,-0.622202 -5.71703,2.212544 -8.59375,1.9375 -3.39906,-0.324986 -6.76198,-1.31012 -10.15625,-1.34375 -3.30486,-0.03274 -6.65134,1.1046 -9.84375,1.40625 -13.88387,1.311884 -27.59533,2.895774 -41.28125,5.15625 -5.27547,0.871339 -8.25202,9.006015 -11.625,14.4375 0.22894,-6.464626 -0.37738,-8.403732 -3.46875,-13.6875 -2.5839,-4.41641 -8.1515,-10.248299 -12,-13.6875 -5.54784,-4.957819 -9.68951,1.366008 -20.15625,4.96875 -10.03094,3.452736 -11.47918,4.809251 -15.59375,16.09375 -9.83076,26.96155 -14.16642,56.516136 -22.3125,83.999996 -3.80957,12.853 -7.6294,26.81714 -12.625,33.375 -3.8438,5.04774 -3.88323,-7.90622 -4.59375,-14.3125 -0.61396,-5.53561 -2.52872,-8.9262 -2.65625,-14.34375 -0.0625,-2.65435 2.99804,-8.43765 2.15625,-10.90625 -2.56102,-7.51037 -0.71433,-12.92082 1,-19.53125 3.61749,-13.94903 5.522,-29.405246 -0.84375,-43.031246 -2.11555,-4.52836 -2.04531,-8.734051 -6.625,-11.375 -3.23302,-1.86437 1.01065,-4.940068 -4.1875,-7.03125 -7.9436,-3.195655 -11.75059,-4.527595 -19.65625,-7.90625 -7.90566,-3.378655 -12.91051,13.7784 -17,20.3125 -4.79091,7.65483 -4.01804,16.88804 -5.4375,25.499996 -0.63403,-19.337086 -11.39446,-38.242313 -28.9375,-47.062496 -14.367,-7.22335 -29.15942,-13.395557 -45.125,-16.59375 -12.56035,-2.516066 -26.64032,-5.072567 -38.15625,2.53125 -8.29314,5.475852 -16.33496,11.268822 -20.90625,20.34375 -10.26154,20.37123 -5.2869,43.794686 -5,65.499996 0.0865,6.54113 1.79025,13.95139 -0.75,20 -1.17268,2.79227 -2.82196,3.15446 -4,-0.21875 -2.05719,-5.89053 -0.18297,-12.15607 -2,-18.15625 -0.55751,-1.84101 -0.65722,-3.6963 -0.625,-5.53125 0.083,-4.7238 1.69028,-9.43055 1.09375,-14.09375 -1.23357,-9.64302 -4.52514,-18.932536 -6.8125,-28.281246 -1.36256,-5.568939 -4.78125,-6.37416 -10.03125,-9.8125 -4.72795,-3.096436 1.10263,-8.976451 2.65625,-13.0625 1.67944,-4.416982 -2.81622,-5.77922 -4.90625,-7.40625 -4.68897,-3.650235 -8.6444,-8.253502 -13.53125,-11.5 -6.36448,-4.22814 -6.54398,-5.817074 -19.8125,3.3125 -7.14507,4.916259 -12.85184,4.71875 -19.15625,15.59375 -2.63248,4.540982 -10.21991,4.921312 -13.46875,9.5 -3.64303,3.805058 -6.02655,8.54084 -9.46875,13.6875 -1.67305,2.50148 3.5088,4.78825 2.9375,6.8125 -5.43688,19.264236 -12.05115,38.369316 -20,57.781246 -1.66964,4.07743 -7.30388,9.9465 -10,12.21875 2.37034,-25.02759 4.75785,-49.89977 6.28125,-74.874996 0.28086,-4.60453 2.16967,-6.70309 2.375,-11.28125 0.51718,-11.531358 -10.50139,-25.53036 -17.34375,-37.625 -0.66677,-1.178591 -4.12936,-8.429895 -5.46875,-8.375 z m 197.71875,66.75 c 3.69998,0.0337 12.63349,3.65915 12.375,6.999996 -0.35425,4.57863 -12.36704,9.64285 -16.03125,10.9375 -1.31591,0.46494 2.40947,-7.14425 2.90625,-10.59375 0.34751,-2.41298 -1.43449,-7.071266 0.0937,-7.312496 0.19596,-0.0309 0.40958,-0.0336 0.65625,-0.0312 l 5e-5,-5e-5 z m 81.25,21.124996 c -0.50345,7.00668 -1.28213,14.14291 -1.301,21.15662 -0.0208,7.74739 0.74781,15.37279 0.76623,23.12337 0.0115,4.85475 -1.43609,10.08615 -1.30898,14.93876 0.42763,16.3258 4.70578,32.32 9.5625,47.90625 0.84091,2.69864 2.9075,6.53566 -2.53125,2.0625 -24.16081,-19.87132 -52.07048,-40.268 -67.15625,-52.40625 -5.91173,-4.75667 9.51179,-6.42863 18.09375,-13.8125 10,-8.60395 17.15612,-9.66578 25.91904,-16.93405 8.73954,-7.24888 15.67236,-16.63692 17.95596,-26.0347 z m 316.84375,10.875 c 8.85115,-0.63435 11.05805,8.17443 10.30454,16.14032 -0.48302,5.10624 3.65756,12.45492 2.19666,17.26593 -1.33128,4.38413 -5.18752,8.97657 -6.1262,13.46875 -2.29864,11.00051 -8.50953,22.04815 -18.8125,28.0625 -3.40757,1.98916 -7.98177,7.86481 -11.3125,5.40625 -8.04189,-5.93606 -1.74814,-18.45095 -2.59375,-27.3125 -0.77715,-8.1442 2.82187,-15.69308 4.6875,-23.52329 1.04672,-4.39316 -0.26314,-9.1066 0.65625,-13.44546 1.93194,-9.11737 12.29225,-15.43842 21,-16.0625 z"
     id="path3699"
     sodipodi:nodetypes="csssssssssssssssssssssssssssssssssssssssssssssssssssssssssssssssszzsssssssssssssssssssssssssssssscsssssccsssssszsssssccssssscssssssssssssssscssssssssssssssssscssscsssccsssscccssssssssccsssssssss" />
  <path
     style="fill:url(#linearGradient3647);fill-opacity:1;stroke:none"
     d="m 13.755311,229.8621 c 1.69961,-5.42369 2.547728,-11.18887 3.032743,-16.7626 0.206818,-2.37672 -0.887591,-4.8199 -0.551125,-7.08094 0.263697,-1.77204 3.177853,-3.53436 3.416381,-5.44122 0.381632,-3.05087 -1.122501,-6.30766 -0.575895,-9.35859 0.58286,-3.25328 2.434879,-0.76234 3.72042,-6.62211 2.290755,-10.44175 3.987401,-23.9186 5.062616,-34.65752 0.810953,-8.09955 2.358958,-16.19779 3.403359,-24.16449 0.977084,-7.45321 4.333792,-15.09211 2.218686,-22.3502 -1.700164,-5.834196 -0.126261,-11.610736 2.139391,-17.056436 1.760405,-4.2313 6.384467,-7.524303 8.912484,-11.846992 1.962604,-3.355882 3.156631,-5.81462 5.298128,-5.910821 1.640869,-0.07371 3.052614,1.913651 5.208834,2.816969 3.491126,1.462558 7.937517,-0.926835 10.880916,-2.179038 3.51693,-1.496199 5.506078,-4.536008 8.514747,-4.95486 3.143863,-0.437672 6.496262,1.284556 10.127602,2.775822 4.84528,1.989788 8.4904,7.387616 9.61358,10.566866 1.12319,3.179254 0.64207,4.561174 0.20626,5.670944 -2.94249,7.49289 -3.77015,13.71618 -6.60168,21.523946 -3.50831,9.67393 3.31985,19.1472 6.12973,28.08198 1.48687,4.72793 3.36847,9.01477 4.99665,13.47387 1.762412,4.82672 3.369642,9.62579 4.716502,14.70296 1.32654,5.0006 2.37985,11.48512 4.78384,15.96894 1.694,3.15957 2.96273,-4.58913 3.80076,-9.51495 0.33324,-1.95868 1.62062,-3.72846 1.7524,-4.67534 1.0618,-7.62886 0.25589,-18.10522 0.94878,-26.32797 0.36741,-4.36011 1.28397,-6.76412 1.45718,-10.76244 0.42543,-9.82068 -3.05745,-15.08093 -1.9602,-21.22729 0.28186,-1.57888 3.46949,-2.75116 3.75801,-4.989116 1.16264,-9.0182 2.98,-16.72889 6.78378,-25.927645 5.13376,-12.415075 9.47938,-12.238298 12.19262,-18.04924 1.41999,-3.041194 2.82817,-5.20976 4.39551,-8.158574 1.44635,-2.721171 2.00214,-4.827772 3.64323,-4.102683 1.47019,0.649578 7.22488,10.531021 9.77536,14.260622 3.54447,5.183131 5.96474,11.561994 6.20984,17.761982 0.11176,2.826931 -1.11893,5.480318 -1.4642,8.465848 -2.14315,18.531606 -3.05506,37.412126 -4.11694,56.164336 -1.21536,21.46241 -4.1385,43.23333 -10.21264,63.84839 -1.6207,5.50052 -2.23597,11.58618 -4.0746,17.39424 -0.93601,2.95674 -2.51134,7.0694 -3.81998,10.42636 -1.62541,4.16955 -2.61158,10.14163 -7.62664,11.52321 -5.50815,1.51742 -11.45061,1.93218 -16.22542,4.71649 -8.45607,4.93094 -13.31383,-2.36993 -18.671002,-7.53064 -8.07394,-7.77786 -10.22992,-19.10217 -16.36092,-28.01107 -2.674128,-3.88575 -4.735011,-7.80404 -6.223896,-12.33012 -1.375844,-4.18244 -1.099978,-9.08613 -4.41834,-12.01206 -1.672447,-1.47466 -2.519189,-11.27934 -4.716492,-6.78217 -3.308599,6.77163 -3.597172,14.83168 -6.075683,22.96401 -2.229054,7.31383 -3.922137,15.58821 -5.659089,22.92112 -0.613116,2.5884 -2.395657,4.67634 -2.648555,7.09346 -0.321008,3.0681 3.486002,3.27886 2.402073,5.16506 -1.91492,3.33225 -8.312377,7.43604 -9.542692,11.22321 -0.611432,1.88212 0.525229,3.07598 -2.398487,4.63037 -4.269595,2.26994 -11.251397,3.92358 -16.514812,5.33391 -1.118781,0.29978 -2.190644,0.61374 -3.016388,-0.29825 -7.519511,-8.30489 -7.230758,-19.87375 -6.026736,-30.38954 z"
     id="path2932"
     sodipodi:nodetypes="cssssssssssssssszssssssssssssssssssssssssssssssssssssssc" />
  <path
     style="fill:url(#linearGradient3655);fill-opacity:1;stroke:none"
     d="m 236.58818,250.12412 c -1.98235,-3.38473 -3.40235,-7.13609 -4.71649,-10.86665 -2.76361,-7.84531 -0.9899,-15.91976 -0.49877,-24.06021 0.41507,-6.87969 -0.43228,-12.83777 -0.009,-19.76752 0.25117,-4.11199 0.1784,-7.41534 -5.42499,-5.69423 -8.93528,2.74451 -18.81854,4.43387 -26.45898,9.37058 -4.17458,2.69732 -4.54078,8.48572 -5.62851,13.66226 -1.96491,9.35102 -5.21253,18.3416 -7.5567,27.52268 -0.98329,3.85112 -3.70808,6.91342 -4.77202,10.84602 -1.20921,4.46956 -6.13246,5.54504 -11.77769,6.91667 -4.51113,1.09607 -7.72006,1.79631 -10.98893,-0.0715 -3.93999,-2.25128 -9.26969,-5.2418 -11.00126,-9.12341 -3.2184,-7.2146 2.77037,-16.94858 4.6238,-25.07889 1.86238,-8.16953 7.78745,-17.89435 2.05037,-25.81997 -4.49463,-6.20921 -1.83566,-15.82923 2.22198,-21.52371 4.14689,-5.81975 7.68337,-11.36783 12.57229,-16.66033 2.94601,-3.1892 3.3535,-7.56087 5.45076,-11.13566 3.20975,-5.47106 4.17445,-12.55897 6.73536,-18.90518 5.26265,-13.04141 9.70791,-26.36709 13.57604,-39.037136 0.7214,-2.36297 -2.21694,-4.15738 -1.74012,-6.14933 0.80478,-3.36204 4.32822,-7.254524 6.39506,-9.977222 3.76248,-4.956407 10.65416,-4.216044 13.61793,-9.696609 1.63365,-3.020927 3.30684,-5.823417 6.61492,-7.412161 6.4702,-3.107384 12.15998,-8.759554 18.55327,-11.051589 5.64996,-2.025544 12.14371,7.842548 17.6526,11.148425 7.60912,4.566224 -4.61736,14.874475 -0.0922,19.808504 2.19966,2.398412 6.08881,2.810592 8.66208,4.925832 4.21649,3.46598 4.41746,11.30687 5.79174,16.89627 1.62745,6.619116 5.45897,13.698096 3.19402,20.537506 -2.66585,8.05001 1.60193,15.49437 0.8659,23.61417 -0.46997,5.18457 1.023,9.71831 3.91086,13.48083 4.44586,5.7924 -2.97893,10.43433 -4.92584,15.55817 -2.54754,6.70455 -0.1501,14.84575 -1.14714,22.09068 -0.8694,6.31744 -1.36781,13.04939 -3.42027,18.90403 -2.0596,5.87502 1.47346,13.79164 -2.68654,18.55354 -4.07752,4.66748 -7.69328,10.91449 -12.53818,15.43432 -3.50933,3.27387 -10.28034,16.00204 -12.17978,12.44753 -1.55196,-2.90426 -3.22494,-6.48383 -4.92557,-9.68671 z m -14.8663,-98.89733 c 3.12771,-2.09091 9.82911,3.07044 9.64232,-3.15672 -0.20551,-6.85132 0.50472,-12.5504 -0.8659,-17.77233 -1.68962,-6.43729 -9.01978,10.9987 -10.31947,15.2466 -0.60211,1.96795 -3.41325,8.99579 1.54305,5.68245 z"
     id="path2934"
     sodipodi:nodetypes="cssssssssssssssssssssssssssssssssssssccssss" />
  <path
     style="fill:url(#linearGradient3634);fill-opacity:1;stroke:none"
     d="m 328.69634,44.40625 c -7.84458,0.222714 -14.0226,6.417642 -21.21875,9.875 -4.2506,2.042179 -6.21054,5.578126 -8.25,9.15625 -3.04459,5.341575 -6.7731,11.694262 -7.75,18.375 -1.52236,10.41096 -0.84592,20.90252 -0.125,31.34375 0.5971,8.64806 0.81223,17.15602 1.125,25.84375 0.17634,4.8981 1.17341,8.51702 -0.46875,12.21875 -1.89798,4.2784 -7.17903,8.0281 -10.75,11.875 -6.52646,7.03078 -1.47685,17.25162 3.0625,23.0625 2.3673,3.03041 4.71134,6.39629 5.0625,9.65625 0.66662,6.18839 -2.5126,12.45701 -3.75,18.46875 -1.94243,9.43701 -2.75673,19.03527 4.0625,26.9375 5.60638,6.49675 16.22345,18.01453 23.875,9.40625 6.80827,-7.65956 8.86676,-18.76039 10.1875,-28.59375 0.88728,-6.6061 1.52709,-8.25838 4.65625,-6.375 3.25567,1.95952 9.4045,6.99258 12.0625,8.6875 6.43997,4.10655 12.46861,9.95942 18.53125,13.90625 3.34493,2.17758 6.89577,4.45961 10.3125,7.09375 6.01615,4.63819 12.67535,7.71599 20.125,9.875 7.10027,2.05776 8.09215,1.41237 13.75,5.125 1.48265,0.9729 4.4241,4.35909 9.0064,6.33418 5.15961,2.22393 12.78642,2.27184 16.43276,4.16559 3.92575,2.03887 18.34066,8.8552 22.12381,10.59468 6,2.75877 16.40316,9.08741 24.49013,9.08741 6.92968,0 10.31526,-4.38905 10.23966,-9.59962 -0.14003,-9.65263 -18.2404,-18.97375 -26.75634,-24.3461 -6.36983,-4.01846 -16.3894,-12.66476 -22.53642,-16.86114 -5.52974,-3.77499 -10.20269,-8.17995 -15.53125,-12.5625 -8.28312,-6.81257 -17.22856,-12.3641 -25.375,-19.28125 -10.75081,-9.12852 -22.5835,-17.4596 -33.8125,-25.75 -4.99984,-3.69139 -16.72698,-10.35349 -14.0625,-13.71875 4.07861,-5.1513 18.16718,-6.3961 26.03125,-11.84375 5.90619,-4.09137 12.15094,-7.78896 18.28125,-10.6875 4.94684,-2.33897 9.24187,-6.35697 13.59375,-10.15625 4.80218,-4.1924 8.0112,-10.02936 10.78125,-16.25 4.34186,-9.75044 2.00011,-20.34363 -1.125,-29.9375 -2.6088,-8.00881 -7.3171,-14.991081 -13.84375,-20.125 -6.97451,-5.486216 -15.43072,-8.123783 -23,-12.59375 -7.92534,-4.680241 -17.76643,-6.671611 -27.1875,-8.53125 -7.20396,-1.422 -14.6826,-4.089845 -22.25,-3.875 z m 5.71875,43.125 c 3.88222,-0.473853 15.14541,5.713201 20.96875,7.96875 9.90066,3.83482 5.13973,11.29053 -1,15.15625 -6.96653,4.38629 -13.65157,9.1048 -21.09375,12.4375 -6.30883,2.82517 -0.72273,-11.01245 0.0937,-14.78125 0.90383,-4.17202 2.43013,-8.95666 1.8125,-13.34375 -0.33052,-2.34771 -2.84108,-5.3111 -1.96875,-6.8125 0.21538,-0.370706 0.6329,-0.557307 1.1875,-0.625 l 5e-5,0 z"
     id="path2938"
     sodipodi:nodetypes="cssssssssssssssssssssssssssssssssssssssccsssssscc" />
  <path
     style="fill:url(#linearGradient3642);fill-opacity:1;stroke:none"
     d="m 525.79556,252.43956 c -2.60365,2.19608 -12.90722,8.35515 -18.46666,8.35515 -5.55944,0 -12.42411,-20.14118 -16.11957,-20.69057 -3.83242,-0.56974 -13.86007,12.04004 -18.41212,12.55281 -4.55205,0.51276 -15.05033,-5.69111 -20.04196,-8.63646 -3.66019,-2.15972 -10.12763,-8.83734 -12.15584,-12.67352 -1.98585,-3.75608 -3.90235,-7.10426 -4.71648,-11.88162 -0.98393,-5.77378 -3.88106,-11.3298 -4.42469,-17.38156 -1.02819,-11.44605 -4.12878,-22.77333 -2.92203,-34.57663 1.76646,-17.27792 -1.86027,-34.92112 0.85923,-52.2317 1.27781,-8.13376 2.10216,-16.303716 2.78597,-24.368586 0.42209,-4.97805 3.68784,-8.4596 5.73148,-12.523921 1.97582,-3.929444 3.99607,-11.337033 8.36496,-11.111796 4.1473,0.213812 8.92359,3.203999 13.20339,5.021909 2.74971,1.167981 3.51179,4.45512 4.99754,6.735389 0.99386,1.525319 3.85468,0.838619 4.68136,2.704579 1.62773,3.67409 2.99661,8.66057 4.78458,12.88962 3.09147,7.312196 1.0183,15.328956 0.36854,22.900506 -0.59072,6.88355 -2.87271,13.57137 -3.84274,20.42452 -0.57861,4.08781 0.83062,7.66927 0.65732,11.23365 -0.12889,2.65089 -1.71529,2.02188 -1.71529,8.30672 0,4.69958 0.66201,9.13089 1.46377,13.7307 0.67315,3.86192 0.57767,7.81848 1.03844,11.70727 0.66632,5.62359 1.84752,12.47607 4.6281,16.89098 3.86482,6.13642 10.56238,-7.27348 13.57084,-11.62788 4.22348,-6.11298 5.71341,-14.48486 7.68308,-21.5028 1.75763,-6.26243 2.60511,-12.75932 4.71649,-18.83741 2.00903,-5.78346 2.98864,-12.10246 4.92584,-17.95566 2.01914,-6.1008 3.03447,-12.53186 4.20899,-18.94209 1.4456,-7.88974 3.81699,-15.819566 6.17425,-23.680436 2.02552,-6.75461 4.68109,-13.265156 7.37252,-20.050989 0.49804,-1.25569 1.19908,-1.949841 2.2997,-2.584687 6.70183,-3.865658 11.01715,-5.868317 18.09392,-9.113095 1.63212,-0.748342 2.82099,-0.606221 3.94408,0.618511 4.84688,5.285537 10.88717,10.771546 11.63055,17.479672 1.37225,12.382968 -2.78473,24.193228 -2.95659,36.480974 -0.15922,11.38359 -3.54276,22.51813 -7.07791,33.24389 -1.10008,3.33766 -2.9825,6.22464 -3.66576,9.64973 -0.79463,3.98342 -0.62382,8.4089 -1.084,12.45025 -0.69784,6.12846 -4.23026,12.95819 -4.9992,18.19079 -0.16377,1.11445 0.91408,2.52385 0.67059,3.61974 -0.63674,2.86587 -2.693,5.66748 -2.63924,8.74196 0.10025,5.73326 0.21021,13.77553 -1.05264,20.02646 -1.80517,8.93535 3.31781,9.96307 3.05298,15.19482 -0.18169,3.5893 -3.69296,8.24691 -6.19904,10.98484 -2.52881,2.76276 -6.82117,8.0467 -9.41675,10.23597 z"
     id="path2940"
     sodipodi:nodetypes="czzzssssssssssssssssssssssssssssssssssssssssss" />
  <path
     style="fill:url(#linearGradient3689);fill-opacity:1;stroke:none"
     d="m 598.59131,250.65317 c -1.54696,-7.56334 -1.75639,-15.49067 -2.89555,-23.21737 -1.78943,-12.13731 -0.76431,-24.59818 0.93317,-36.77075 1.58629,-11.37522 0.72226,-23.11133 2.96605,-34.30568 0.77322,-3.85763 2.41729,-7.91403 2.21316,-11.83774 -0.17947,-3.44977 -1.82245,-5.64115 -1.51128,-8.63755 0.14579,-1.40389 1.72042,-1.67038 1.7855,-3.47287 0.10168,-2.81637 -5.13982,-6.01664 -3.01377,-8.35329 1.86793,-2.05296 4.31616,-3.36799 4.28625,-6.73168 -0.072,-8.09575 -8.54464,-0.18291 -13.0998,-0.17036 -4.53712,0.0125 -9.35592,2.49354 -13.71986,2.46302 -2.67316,-0.0187 -5.20685,-1.43289 -7.03811,-4.41599 -2.16093,-3.52013 -6.76855,-6.8033 -7.0128,-10.11927 -0.10817,-1.46845 1.74165,-3.19292 3.25189,-5.588286 2.65209,-4.20646 2.21659,-9.34113 4.78086,-13.70939 1.79059,-3.05028 3.71402,-4.29003 5.94081,-9.32095 2.22679,-5.030917 8.33225,-8.655423 15.47847,-9.246865 10.55531,-0.873588 21.22205,-2.97696 31.89243,-3.796263 2.25663,-0.173271 5.16881,-1.279706 7.82982,-1.222462 5.5534,0.119464 10.85916,1.760099 12.97413,1.773407 1.55607,0.0098 3.75024,-1.108294 4.46309,-1.116025 2.6154,-0.02836 4.9425,1.280303 7.49026,1.710421 5.46614,0.922802 9.3698,3.499583 11.72761,8.628777 2.21899,4.8272 4.18537,9.46854 5.22292,14.95613 1.29253,6.83614 -6e-4,14.066436 -6.0456,18.440946 -4.50492,3.26003 -10.90912,3.13924 -15.36652,3.01178 -1.82902,-0.0523 -2.48168,0.5415 -2.81541,2.93216 -0.83789,6.00219 -1.39152,13.39677 -1.72428,19.32076 -0.43228,7.69564 -2.62294,14.43337 -3.12317,21.88752 -0.50429,7.5146 -3.90378,14.13889 -4.56742,21.56835 -0.59396,6.6495 -2.62601,12.87566 -3.41888,19.28465 -0.85893,6.94296 0.3357,14.17659 -1.18818,20.98156 -1.32394,5.9121 -2.47354,12.21153 -1.22534,16.87059 0.38204,1.42599 5.52194,0.99822 5.23892,2.56569 -0.24658,1.36565 -5.9396,1.75732 -5.97982,6.20261 -0.051,5.63064 -5.80094,10.65428 -8.36096,12.67184 -2.56002,2.01756 -7.88062,8.24961 -11.91613,7.43283 -5.60266,-1.13396 -4.63429,-2.62507 -12.42548,-7.53346 -0.99295,-0.62555 -1.76599,-1.86078 -2.02698,-3.13679 z"
     id="path2944"
     sodipodi:nodetypes="csssssssssssssszssssssssssssssssssszsss" />
  <path
     style="fill:url(#linearGradient3659);fill-opacity:1;stroke:none"
     d="m 668.16193,231.31777 c -2.87386,-6.10918 -4.9914,-17.55565 -4.13457,-25.79642 0.96535,-9.28459 -0.67706,-17.84677 -5.61594,-26.06071 -4.76805,-7.92983 1.30684,-17.89161 5.85656,-25.16377 3.14745,-5.03081 4.48285,-10.26423 7.59809,-15.01505 2.80896,-4.28374 3.02557,-10.03719 4.71649,-15.06137 1.81103,-5.38109 4.77458,-10.25107 6.90858,-15.77349 2.70806,-7.00797 4.92386,-14.362176 8.46343,-21.059976 3.52039,-6.66153 11.3205,-12.369019 18.98828,-14.078947 6.9189,-1.542928 9.72866,8.595457 14.94084,5.223982 4.42726,-2.863751 10.34709,-2.996515 15.5086,-4.716491 4.92497,-1.641151 10.33109,-3.453872 14.41908,-0.358415 3.28593,2.48813 8.30386,0.247029 10.99429,2.899759 5.98736,5.903472 13.17004,10.444692 18.2072,17.362462 5.63953,6.854826 9.6666,14.584786 12.11248,23.212286 6.13339,21.63467 5.80923,45.2752 -1.53092,66.24814 -4.16348,11.89627 -13.95803,20.90722 -21.658,30.64057 -3.22815,4.08063 -3.60148,8.64678 -9.73227,11.17765 -6.57937,2.71605 -8.75654,8.14248 -15.17808,13.04396 -8.02603,6.12615 -15.52545,13.50451 -24.935,16.7664 -8.15564,2.82721 -17.52064,4.44559 -26.31365,1.9927 -17.50109,-4.88208 -20.75391,-6.64551 -29.61549,-25.48327 z m 50.39328,-16.41985 c 3.54272,-0.86752 5.97535,-3.01608 8.91122,-4.71649 3.96167,-2.29453 7.99185,-5.77989 11.628,-9.19277 3.35217,-3.14634 5.93286,-7.08474 7.88026,-10.95778 2.57817,-5.12755 3.30787,-11.72975 6.9376,-16.69699 5.13549,-7.02786 5.4325,-16.41141 4.09253,-24.34791 -1.32655,-7.85696 -1.36808,-17.65565 -8.51865,-23.53714 -5.35135,-4.4016 -11.22197,-4.65242 -17.17738,-1.57618 -6.36315,3.28685 -13.35781,7.06675 -16.79852,13.37919 -2.44553,4.48667 -3.59307,9.6466 -4.05993,14.97098 -0.6342,7.23296 -4.87185,13.81168 -4.05992,21.06086 0.81812,7.30442 -0.033,14.13624 -0.9793,21.33046 -0.74428,5.65846 1.06481,11.0852 3.51675,15.71636 1.44666,2.7324 5.5312,5.32558 8.62734,4.56741 z"
     id="path2946"
     sodipodi:nodetypes="csssssssssssscsssssssscsssssssssssss" />
  <path
     sodipodi:nodetypes="cccccccccccccccccccccccccccccccccccccccccccccccccccccccccccccccccccccccccc"
     id="path3712"
     d="m 858.19671,283.00458 c -21.80378,7.91252 -32.78821,30.24327 -45.15898,48.16868 -2.53756,4.04662 -5.38426,8.63691 -8.02852,12.14382 7.70234,-12.22745 2.38918,-28.45599 -7.4375,-37.8125 -6.24901,-8.83502 -19.49383,-11.07484 -28.375,-4.8125 -9.01419,3.2494 -16.68297,12.84357 -13.875,22.78125 -0.27967,1.3338 0.11247,5.36934 -2.125,3.0625 -11.11543,-6.20952 -24.19157,-1.97398 -35.9619,-1.55434 -7.31047,-1.40722 -16.58546,-1.72119 -22.4756,2.55434 -8.88942,-12.54763 -25.0893,-17.13757 -39.90625,-16.8125 -7.2705,-2.87504 -13.44597,-11.20717 -22.1875,-8.28125 -12.32742,2.61676 -19.16878,15.75905 -20.65625,26.9375 -6.34528,-2.34437 -12.91448,2.03928 -18.03125,5.375 -1.25166,1.46909 -2.0122,3.66457 -3.375,0.9375 -7.99278,-9.00186 -24.46955,-9.58392 -31.625,0.0625 -7.61031,-7.30469 -18.95733,-8.14358 -28.40625,-11.4375 -8.01236,-8.38024 -23.01081,-4.95691 -29.03125,3.875 -5.62124,-4.80773 -13.52924,-4.98561 -19.53125,-8.875 -2.45815,-0.55319 -6.31457,-0.51426 -5.40625,-4.3125 -4.61376,2.92216 -3.4432,-3.88399 -6.625,-5.09375 -4.95066,-4.92473 -12.36173,-2.36044 -18.28125,-3.1875 -8.40358,-1.73538 -15.67621,5.54591 -17.0625,13.375 -1.21343,1.73271 -0.85987,7.48159 -3.78125,4.125 -7.50231,-4.57231 -17.71018,-4.42899 -24.9375,-0.0625 -6.1447,-5.49554 -15.31645,-5.89552 -22.40625,-1.9375 -5.66461,2.35203 -10.80659,6.26022 -14.4375,11.28125 -4.89268,-7.63939 -14.63349,-11.74879 -23.34375,-10.5625 -2.9515,-15.45233 -20.44448,-24.8319 -35.31206,-21.28288 -24.86727,0.48383 -52.49069,-0.27571 -73.03169,15.84538 -14.77617,10.91053 -23.63023,31.8158 -15.15262,49.3318 5.34111,12.70576 16.29145,22.45609 28.71512,27.88695 -22.93142,12.06465 -49.92917,8.84037 -74.78125,12.78125 -4.38274,0.75322 -7.72171,4.25434 -10.5625,6.90625 -9.69222,1.47298 -17.19458,14.93897 -9.34375,22.5625 6.92396,7.62218 18.20369,4.2911 27.03125,4.6875 8.30375,6.54974 19.00167,0.82044 28.40625,2.15625 12.36424,-0.0272 25.08474,0.67654 37.03125,-3.03125 11.75575,2.89042 24.80552,2.44915 35.34375,-3.84375 6.26592,-1.93378 11.95412,-6.77749 18.125,-8 4.73458,1.59797 9.93374,-0.11928 14.65625,1.0625 4.17048,-0.14643 8.89603,-1.80606 12.1875,-3.25 1.79715,10.57951 16.97435,13.47492 23.4375,5.46875 2.762,-2.53382 6.83507,-2.4457 9.75,-4.8125 3.98344,-0.0622 7.33806,-3.45727 9.71875,-5.625 1.31671,9.17789 13.33642,13.50608 20.34375,7.65625 0.9589,0.0165 -0.92814,4.75987 -0.4375,6.8125 -0.71485,9.14279 8.20362,18.19999 17.4375,15.09375 10.53437,-3.05262 11.17582,-15.69467 17.87224,-22.59532 4.7432,-6.21105 12.7233,-9.57609 14.90901,-17.74843 0.38562,-3.65184 3.31627,-4.55671 6.3125,-3.21875 9.65262,0.40562 18.36331,-5.27878 27.6875,-6.96875 -4.44848,11.60732 -12.76011,24.12497 -8.40625,37 3.83866,7.72183 14.94551,7.46429 20.8125,2.5 11.80792,-1.91345 15.57658,-15.27621 20.62489,-24.22631 1.50463,-2.39707 2.8888,-9.49999 7.15636,-6.83619 9.48288,2.05244 19.09118,-4.75226 27.125,-6.53125 0.18909,10.27398 7.87866,18.18456 16.125,23.1875 8.10588,6.2518 19.80458,2.70179 27.3125,-2.375 -0.0668,9.51938 10.46926,18.1239 19.625,13.6875 5.03558,-1.01185 6.66892,-7.8004 11.96875,-7.03125 5.77873,-0.86879 11.56688,-3.92258 17.40625,-2.3125 12.63086,-2.59231 23.44294,-10.11187 34.8125,-15.875 4.9046,8.96348 16.95638,9.15319 26.03112,8.60913 6.87434,-0.11602 13.7982,1.15842 20.62513,-0.20288 -1.4996,9.85773 7.5434,20.99403 17.9375,17.75 8.26088,-2.24527 12.86054,-11.26966 21.5625,-12.5625 3.31159,-1.19876 7.19897,-4.86765 9.21875,-6.09375 -1.0645,11.59948 8.25694,22.35752 19.90625,22.875 18.80429,2.03198 36.11103,-12.78395 40.34482,-30.65742 3.3048,-8.69252 9.65682,-15.88004 11.93643,-25.06133 4.92798,-19.01121 12.00444,-37.28914 19.47714,-55.4047 1.67356,-5.28679 4.87099,-10.33025 3.77286,-15.7828 3.34473,-5.3297 8.33499,-10.18873 9.4375,-16.75 2.25405,-8.19303 -3.97952,-16.55535 -12.6875,-15.71875 z"
     style="fill:#000000;fill-opacity:1;stroke:none" />
  <path
     style="fill:#000000;fill-opacity:1;stroke:none"
     d="m 853.00884,270.1875 c -21.80378,7.91252 -32.78821,30.24327 -45.15898,48.16868 -2.53756,4.04662 -5.38426,8.63691 -8.02852,12.14382 7.70234,-12.22745 2.38918,-28.45599 -7.4375,-37.8125 -6.24901,-8.83502 -19.49383,-11.07484 -28.375,-4.8125 -9.01419,3.2494 -16.68297,12.84357 -13.875,22.78125 -0.27967,1.3338 0.11247,5.36934 -2.125,3.0625 -11.11543,-6.20952 -24.19157,-1.97398 -35.9619,-1.55434 -7.31047,-1.40722 -16.58546,-1.72119 -22.4756,2.55434 -8.88942,-12.54763 -25.0893,-17.13757 -39.90625,-16.8125 -7.2705,-2.87504 -13.44597,-11.20717 -22.1875,-8.28125 -12.32742,2.61676 -19.16878,15.75905 -20.65625,26.9375 -6.34528,-2.34437 -12.91448,2.03928 -18.03125,5.375 -1.25166,1.46909 -2.0122,3.66457 -3.375,0.9375 -7.99278,-9.00186 -24.46955,-9.58392 -31.625,0.0625 -7.61031,-7.30469 -18.95733,-8.14358 -28.40625,-11.4375 -8.01236,-8.38024 -23.01081,-4.95691 -29.03125,3.875 -5.62124,-4.80773 -13.52924,-4.98561 -19.53125,-8.875 -2.45815,-0.55319 -6.31457,-0.51426 -5.40625,-4.3125 -4.61376,2.92216 -3.4432,-3.88399 -6.625,-5.09375 -4.95066,-4.92473 -12.36173,-2.36044 -18.28125,-3.1875 -8.40358,-1.73538 -15.67621,5.54591 -17.0625,13.375 -1.21343,1.73271 -0.85987,7.48159 -3.78125,4.125 -7.50231,-4.57231 -17.71018,-4.42899 -24.9375,-0.0625 -6.1447,-5.49554 -15.31645,-5.89552 -22.40625,-1.9375 -5.66461,2.35203 -10.80659,6.26022 -14.4375,11.28125 -4.89268,-7.63939 -14.63349,-11.74879 -23.34375,-10.5625 -2.9515,-15.45233 -20.44448,-24.8319 -35.31206,-21.28288 -24.86727,0.48383 -52.49069,-0.27571 -73.03169,15.84538 -14.77617,10.91053 -23.63023,31.8158 -15.15262,49.3318 5.34111,12.70576 16.29145,22.45609 28.71512,27.88695 -22.93142,12.06465 -49.92917,8.84037 -74.78125,12.78125 -4.38274,0.75322 -7.72171,4.25434 -10.5625,6.90625 -9.69222,1.47298 -17.19458,14.93897 -9.34375,22.5625 6.92396,7.62218 18.20369,4.2911 27.03125,4.6875 8.30375,6.54974 19.00167,0.82044 28.40625,2.15625 12.36424,-0.0272 25.08474,0.67654 37.03125,-3.03125 11.75575,2.89042 24.80552,2.44915 35.34375,-3.84375 6.26592,-1.93378 11.95412,-6.77749 18.125,-8 4.73458,1.59797 9.93374,-0.11928 14.65625,1.0625 4.17048,-0.14643 8.89603,-1.80606 12.1875,-3.25 1.79715,10.57951 16.97435,13.47492 23.4375,5.46875 2.762,-2.53382 6.83507,-2.4457 9.75,-4.8125 3.98344,-0.0622 7.33806,-3.45727 9.71875,-5.625 1.31671,9.17789 13.33642,13.50608 20.34375,7.65625 0.9589,0.0165 -0.92814,4.75987 -0.4375,6.8125 -0.71485,9.14279 8.20362,18.19999 17.4375,15.09375 10.53437,-3.05262 11.17582,-15.69467 17.87224,-22.59532 4.7432,-6.21105 12.7233,-9.57609 14.90901,-17.74843 0.38562,-3.65184 3.31627,-4.55671 6.3125,-3.21875 9.65262,0.40562 18.36331,-5.27878 27.6875,-6.96875 -4.44848,11.60732 -12.76011,24.12497 -8.40625,37 3.83866,7.72183 14.94551,7.46429 20.8125,2.5 11.80792,-1.91345 15.57658,-15.27621 20.62489,-24.22631 1.50463,-2.39707 2.8888,-9.49999 7.15636,-6.83619 9.48288,2.05244 19.09118,-4.75226 27.125,-6.53125 0.18909,10.27398 7.87866,18.18456 16.125,23.1875 8.10588,6.2518 19.80458,2.70179 27.3125,-2.375 -0.0668,9.51938 10.46926,18.1239 19.625,13.6875 5.03558,-1.01185 6.66892,-7.8004 11.96875,-7.03125 5.77873,-0.86879 11.56688,-3.92258 17.40625,-2.3125 12.63086,-2.59231 23.44294,-10.11187 34.8125,-15.875 4.9046,8.96348 16.95638,9.15319 26.03112,8.60913 6.87434,-0.11602 13.7982,1.15842 20.62513,-0.20288 -1.4996,9.85773 7.5434,20.99403 17.9375,17.75 8.26088,-2.24527 12.86054,-11.26966 21.5625,-12.5625 3.31159,-1.19876 7.19897,-4.86765 9.21875,-6.09375 -1.0645,11.59948 8.25694,22.35752 19.90625,22.875 18.80429,2.03198 36.11103,-12.78395 40.34482,-30.65742 3.3048,-8.69252 9.65682,-15.88004 11.93643,-25.06133 4.92798,-19.01121 12.00444,-37.28914 19.47714,-55.4047 1.67356,-5.28679 4.87099,-10.33025 3.77286,-15.7828 3.34473,-5.3297 8.33499,-10.18873 9.4375,-16.75 2.25405,-8.19303 -3.97952,-16.55535 -12.6875,-15.71875 z"
     id="path3704"
     sodipodi:nodetypes="cccccccccccccccccccccccccccccccccccccccccccccccccccccccccccccccccccccccccc" />
  <path
     style="fill:#ffffff;fill-opacity:1;stroke:none"
     d="m 853.38384,276.1875 c -18.7592,8.24443 -28.16665,28.1103 -39.78125,43.875 -3.8733,7.99965 -10.05756,14.47546 -14.34375,22.125 -1.24515,4.85036 -2.58882,2.9353 -4.09375,-0.71875 -2.79266,-4.46929 -3.7443,-10.08944 0,-14.40625 4.23602,-9.16352 2.43869,-20.91726 -5.4375,-27.59375 -3.72545,-6.34912 -12.02174,-12.64138 -19.25,-7.53125 -6.59158,2.40211 -16.0123,6.50026 -14.65625,15.15625 1.6548,5.9404 -2.0422,12.89247 -4.46875,17.125 -7.05703,-9.07947 -19.90967,-9.08082 -30.09375,-6.5 -7.6144,1.65534 -15.24612,-0.55911 -22.71875,-0.5625 -4.28703,1.0444 -7.3826,4.58199 -9.5,8.28125 -5.595,-13.11825 -19.67022,-21.645 -33.875,-20.9375 -7.14756,-0.0815 -14.0677,-2.87417 -18.8125,-8.15625 -9.47227,-4.47884 -19.20994,4.76472 -21.5,13.53125 -2.05923,5.28418 -2.24999,12.38324 -4.03125,16.84375 -2.41317,-4.56308 -9.43608,-6.95351 -12.84375,-2.4375 -5.13302,-0.0629 -7.36484,4.69171 -8.625,8.875 -1.12244,1.61365 -3.522,11.60899 -3.375,7.53125 0.62563,-10.29206 -8.45464,-20.57762 -19.15625,-18.6875 -5.78054,0.62041 -9.69309,5.43736 -11.125,10.65625 -1.24754,0.089 -3.08385,-3.66785 -4.90625,-4.59375 -7.76494,-6.66753 -18.51765,-8.67001 -28.0625,-10.15625 -5.36297,-9.72944 -22.08397,-4.87794 -22.8125,5.84375 -0.7263,1.46419 -0.52663,8.81099 -1.78125,4.3125 -2.25262,-6.42462 -7.99806,-10.76054 -14.4375,-12.25 -2.87679,-1.06522 -6.74326,0.15945 -8,-3.15625 -2.91959,-1.77385 -7.47432,-1.05372 -8.875,-4.4375 -2.32423,-0.57271 -4.1961,-1.4679 -4.03125,-4.03125 -2.53873,-5.39663 -10.11743,-5.43688 -14.09375,-2.5625 -4.10118,-3.98485 -11.39445,-1.32572 -12.09375,4.34375 -2.54842,5.6991 -4.60861,12.26738 -6.71875,17.71875 -5.42127,-9.31306 -20.01183,-13.76887 -27.90625,-5.09375 -1.39829,2.40285 -3.05993,-2.41014 -5.25,-2.34375 -2.62977,-2.37348 -6.20366,-4.69101 -10.0625,-3.15625 -9.95601,2.44606 -20.71538,9.05554 -21.40625,20.34375 -2.3493,7.04025 -5.0372,14.09116 -7.71875,21 -4.42969,2.05057 0.0961,-3.02485 0.4375,-5 4.51338,-9.64675 6.09734,-24.18561 -4.25,-30.625 -5.57261,-3.46797 -13.00236,-3.4584 -18.875,-0.78125 2.05307,-11.4405 -7.69169,-21.79765 -18.46875,-23.5 -9.963,-0.1174 -19.90298,1.29249 -29.90625,0.78125 -20.92021,0.0327 -43.68882,4.72133 -57.90625,21.21875 -8.52506,9.5239 -11.82891,24.13512 -5.59375,35.71875 5.8113,14.30911 19.76665,23.26286 34.25,27.25 4.07021,0.82958 -1.99573,3.30412 -3.1875,4.625 -19.25303,12.82254 -43.61279,12.81683 -65.93532,15.06211 -6.67205,0.8664 -14.59277,-0.51294 -20.34593,3.37539 -1.64491,2.2384 -1.09079,5.30318 -4.75,4.8125 -5.59237,0.43856 -12.36729,6.91685 -7.875,12.34375 5.66455,5.72411 13.36141,3.22272 21.375,2.625 7.5004,-0.55944 3.74128,4.62055 12.33784,3.59357 21.11598,-2.52262 36.68768,1.50963 54.44341,-4.12482 9.39186,1.44471 19.85688,4.14392 28.54332,-1.42708 8.39661,-3.47761 17.27055,-6.48885 24.30043,-12.35417 2.4276,3.62564 8.07753,3.73299 11.25,1.34375 2.20352,2.84152 5.78381,2.25596 8.15625,0.59375 6.65853,0.7771 10.27179,-6.64939 13.59375,-11.1875 4.13385,-6.97383 6.6477,-14.92582 11.8125,-21.28125 0.81336,1.82785 4.76919,2.47697 2.34375,4.6875 -4.72722,9.88313 -12.01939,19.05418 -13.625,30.0625 0.60329,6.9339 11.22112,7.74397 13.9375,1.75 2.52558,-3.07181 7.31918,-0.71356 9.25,-4.71875 1.55688,-2.7922 3.28055,1.11766 5.53125,-1.40625 9.61411,-5.91498 12.56095,-17.84875 18.125,-26.96875 2.07737,-3.70272 4.05369,-7.31149 6.28125,-10.90625 -4.88191,12.11524 -9.51861,24.79713 -10.25,37.875 1.0131,6.09522 9.50239,7.20599 12.71875,2.25 2.01908,-2.09642 2.67114,-4.30018 6.78125,-5.65625 6.44424,-9.53448 5.59051,-8.75321 12.04338,-18.30136 -4.42689,9.13306 -5.02328,6.6491 -4.94963,17.23886 -1.04918,8.06809 -8.52755,14.77605 -6,23.375 0.92863,6.09408 9.07041,8.64088 12.96875,3.65625 5.32913,-6.85969 7.22997,-16.10668 14.46673,-21.6661 4.30765,-4.56725 10.89401,-8.10423 11.03327,-15.2089 0.95673,-2.3431 4.25717,-2.57581 4.5625,-5.59375 8.55452,2.34473 17.99902,0.11037 25.34375,-4.28125 7.30744,-0.2449 14.33474,-3.24419 19.1875,-8.71875 -2.31326,9.3989 -4.868,18.45973 -9.34375,27.09375 -2.44381,6.49803 -6.18271,14.43151 -2.9375,21.125 3.3208,4.27508 9.15288,1.01955 11.875,-1.625 8.04217,1.2579 11.28694,-8.40188 14.59375,-13.78125 3.94522,-6.49885 6.05689,-16.37617 13.75,-19.1875 6.10459,5.7178 14.12486,-0.65264 20.75,-1.84375 4.92445,-1.5913 10.2816,-4.29674 14.40625,-6.59375 -0.93228,9.16164 1.3138,21.28693 10.5625,25.09375 2.41594,0.78216 3.57861,4.49683 6.625,4.6875 5.08036,1.52795 10.50884,-0.88149 15.21875,-2.59375 2.93,-2.76499 6.27125,-4.64488 9.9375,-5.90625 3.33635,-3.76444 1.89035,0.16531 1.6875,2.84375 -0.66368,5.69643 0.0319,14.89429 7.46875,15.15625 5.334,0.23847 9.44567,-4.14281 11.3125,-8.71875 7.35554,3.35114 14.62668,-4.23386 22.0625,-1.5 9.6548,-0.96362 17.50118,-7.53803 26.3125,-10.96875 4.5364,-2.32159 9.10869,-5.23949 13.34375,-7.71875 0.72775,7.88974 9.07806,12.45522 16.46875,11.125 12.19791,-0.40253 25.74666,3.18688 36.71875,-3.78125 -3.26443,6.31222 -6.14668,17.15358 1.71875,21.28125 6.50315,2.48211 11.93526,-3.30016 15.875,-7.59375 4.24372,-1.81835 7.88647,-3.96462 12.28125,-5.1875 6.38804,-4.41381 11.41707,-10.89877 15.59375,-17.34375 1.83421,-3.16368 3.36644,-6.52512 4.75,-9.90625 -0.0558,9.73838 -3.32413,19.07559 -5.03125,28.53125 -0.35726,9.11507 7.99867,17.28665 17.1875,15.96875 15.62669,0.14886 29.22258,-12.88011 31.40625,-28 5.24313,-9.68635 12.02966,-18.68312 13.57821,-29.83347 5.98179,-19.99461 13.56176,-39.65271 21.95304,-58.47903 0.41788,-3.01279 -2.36147,-6.06472 0.90625,-8.5 3.52418,-5.73447 10.16719,-12.18277 7.9375,-19.4375 -1.25168,-2.1546 -3.80266,-3.45692 -6.28125,-3.1875 z m -109.15625,67 c -4.78226,11.77893 -9.67912,23.86682 -14.8125,35.28125 -4.47716,-5.83261 -13.29851,-3.6219 -19.6875,-4.03125 -1.70875,-0.55862 -6.89827,0.75699 -6.34375,-0.9375 9.726,1.28684 21.14289,-0.10702 28.84375,-6.84375 6.19598,-4.96066 0.88625,-14.25828 -5.75,-15.40625 -3.9399,-1.30635 -9.60012,-0.6419 -12.78125,-1.0625 2.12559,-4.14309 6.70687,-6.35066 11.25,-4.96875 7.73564,0.19793 16.40499,-1.18664 21.5,-7.5625 -0.73958,1.84375 -1.47917,3.6875 -2.21875,5.53125 z m -418.03125,-3.875 c -1.24724,7.55453 -7.08357,13.68661 -9.72163,20.95507 -2.85309,5.70768 -5.67935,11.42932 -8.59087,17.10743 -1.16572,-10.07258 -8.3353,-18.53096 -16.25,-23.9375 -2.2196,-6.62456 -10.38151,-4.4877 -15.1875,-7 -1.67782,-1.41926 -6.45041,-2.51042 -6.40625,-3.375 12.28218,-0.50937 24.69075,0.69105 36.375,4.21875 7.52863,1.2002 15.69704,-1.87612 19.8125,-8.375 l -0.0312,0.40625 -5e-5,0 z m 319.375,1.46875 c 4.39725,-0.39391 9.23991,2.33185 8.375,7.34375 0.32716,13.06048 -11.37262,22.29078 -21.59375,28.25 5.22417,-11.31503 7.29567,-23.87818 11.75,-35.53125 0.48892,-0.0274 0.97899,-0.0581 1.46875,-0.0625 z m -185.71875,5.875 c 1.83301,0.73612 3.85787,0.79014 5.8125,0.65625 -4.2297,3.33015 -8.11421,7.19904 -12.53125,10.25 2.20719,-3.56312 3.96168,-7.94904 6.71875,-10.90625 z m 64.53125,5.78125 c 2.54004,0.20049 5.58084,0.3193 5.8125,3.3125 -3.08622,1.55203 -6.41981,2.749 -9.6875,3.96875 1.34436,-2.25613 2.04475,-5.99651 3.875,-7.28125 z"
     id="path3696"
     sodipodi:nodetypes="ccccccccccccccccccccccccccccccccccccccscccccccccccssccccccccccccccccccccccccccccccccccccccccccccccccccccccccccccccccccccccccccccccccccccccccccc" />
  <path
     style="fill:url(#linearGradient3694);fill-opacity:1;stroke:none"
     d="m 852.25884,282.90625 c -15.21343,10.38534 -23.93786,26.96918 -34.35957,41.40587 -2.21416,3.06718 -3.85836,7.81587 -6.33201,11.19324 -1.74412,2.38132 -3.40889,2.29455 -5.24592,6.27589 -1.84548,3.99965 -5.46221,11.31144 -7.7619,16.10175 -3.21184,6.69032 -3.67516,4.33819 -4.2381,-1.97675 -0.8838,-9.91421 -12.47167,-19.59118 -6.0625,-29.03125 3.65273,-5.3801 4.10628,-12.18601 1.67638,-17.51616 -1.0962,-2.4046 -3.48522,-3.9311 -5.02013,-6.04634 -2.30025,-3.16994 -4.39591,-6.50701 -7.55023,-7.21571 -2.61153,-0.58675 -4.6424,1.53798 -8.07477,3.05946 -3.86239,1.71209 -8.82953,3.04974 -7.47373,7.77505 1.82303,6.35372 -1.36654,10.7743 -4.83877,20.0687 -6.5623,17.56583 -13.62281,34.57737 -20.96875,51.625 -4.33279,10.05507 -11.41302,25.78472 -11.8088,30.65643 -0.35973,4.4279 1.46271,5.76806 4.678,3.53696 2.29967,-1.59575 4.02852,-3.25162 5.91736,-5.58999 2.82374,-3.49578 4.8113,-0.97514 7.53534,-4.08682 2.62268,-2.9959 3.54976,-0.12954 5.71313,-1.72698 5.92923,-4.37819 13.23954,-13.31091 15.68372,-18.9459 1.11605,-2.57302 5.47771,-12.67105 7.07632,-17.00917 2.02994,-5.5086 2.39762,1.56697 4.22639,-3.31501 4.38318,-11.70109 3.10481,28.59285 0.19729,35.38668 -2.71469,6.34325 -3.20336,13.02171 -0.61539,16.69079 2.97336,4.21548 12.26995,4.24134 18.5386,1.4903 5.54091,-2.43167 9.71943,-6.10078 12.64264,-11.01858 2.13186,-3.5865 2.37163,-8.35814 4.43415,-12.75626 2.80344,-5.97805 8.0307,-11.02054 9.93654,-17.84512 1.90598,-6.82506 3.8377,-13.62325 6.31346,-20.27988 3.0909,-8.31057 5.3098,-16.96524 8.59687,-25.16924 1.66979,-4.16752 5.20231,-11.48703 7.08085,-15.61429 8.21126,-18.0406 -5.4674,1.46865 -0.99022,-7.52897 3.74923,-7.53468 8.51218,-14.11466 12.6875,-21.1875 1.77225,-3.00212 -0.42757,-2.20229 -1.59375,-1.4062 z m -538.875,17.4375 c -11.51132,1.615 -24.26858,0.61998 -35.28125,1.2812 -11.63692,0.69871 -24.1865,3.36531 -34.21875,9.8125 -6.84772,4.40066 -15.24235,12.04641 -17.625,21.78125 -2.55729,10.44835 3.50358,20.91555 10.375,28.6875 8.00601,9.05524 30.78125,12.66239 30.78125,17.78125 0,3.55479 -17.35935,15.06081 -26.875,17.8125 -16.6331,4.80988 -36.13582,6.51869 -52.83014,7.84923 -5.11552,0.40771 -15.43995,0.0514 -15.7334,1.75372 -0.36639,2.12541 9.14504,2.84637 4.1601,4.14414 -1.50789,0.39256 -9.42479,1.36436 -13.54542,2.61048 -3.8192,1.15497 -4.02829,2.60143 -1.39484,2.67368 9.31254,0.2555 18.1681,-0.3668 26.8379,0.26573 7.26263,0.52987 13.56728,2.71233 20.98996,2.26727 5.81507,-0.34867 13.31484,0.35534 20.80641,-0.30349 4.75951,-0.41857 9.53086,-3.26646 13.83448,-3.16701 4.64535,0.10735 10.88145,3.20243 17.75489,1.99511 7.82754,-1.37492 15.83872,-6.47847 23.65136,-9.52641 7.62069,-2.97305 12.72033,-10.04564 15.4375,-17.21875 3.85547,-10.17813 0.73681,-19.48241 -5.15625,-26.34375 -2.70271,-3.14678 -5.83645,-4.46545 -8.46214,-6.18598 -1.48001,-0.9698 0.0715,-2.74452 -1.46636,-3.7418 -2.1634,-1.40296 -7.11558,0.26594 -10.46721,-2.22239 -3.03202,-2.25105 -6.62926,-2.74846 -9.27855,-4.32997 -2.50413,-1.49486 -7.44312,-6.37758 -6.39931,-8.43078 2.36246,-4.64705 25.70266,-1.93938 38.26895,-1.26675 2.81561,0.15071 9.99374,3.96916 13.1616,3.3379 4.34126,-0.86508 9.93808,-3.3594 11.36177,-7.56643 2.9151,-8.61415 12.24881,-20.6089 3,-28.15625 -3.55246,-2.89893 -7.03507,-6.24643 -11.68755,-5.5937 z m 317.46875,0.78125 c -12.28875,2.68293 -11.11039,18.78564 -14.46875,28.65625 -8.35988,24.57061 -21.40242,62.55084 -22.5625,74.59375 -1.05496,10.95166 2.16997,10.52375 5.15962,7.07489 3.43399,-3.96143 7.93993,-14.74211 8.75451,-7.81647 0.33403,2.83994 3.53751,2.58623 11.08756,-0.27733 6.15658,-2.33506 6.01469,2.0804 14.51075,-1.41745 8.2414,-3.393 20.96193,-10.28522 28.42511,-14.31364 12.2076,-6.58932 18.08743,-20.94301 22.59375,-33.875 5.33903,-15.32164 0.0124,-34.32996 -15.875,-40.78125 -11.40389,-4.63069 -24.70353,-0.0126 -33.0625,-9.8437 -1.07363,-1.2627 -2.89059,-2.36508 -4.56255,-2.00005 z m -175.41114,4.47402 c -1.83403,-0.43851 -1.62115,0.73665 -4.88414,3.33255 -6.92168,5.50659 -4.7808,-9.7641 -8.79847,-0.15032 -6.06815,14.52033 -10.09494,31.32686 -15.84375,46.71875 -4.96355,13.28941 -11.66489,26.17728 -18.65625,38.5625 -2.51983,4.46389 -1.37409,5.10875 -1.76631,7.73507 -0.6476,4.33631 -1.29276,8.85303 -4.57744,13.79618 -3.93359,5.9197 -2.0314,18.59973 2.9687,7.1563 2.81556,-6.4438 7.91922,-13.46845 11.40625,-17.5625 2.32106,-2.72511 6.61908,-4.81155 9.19678,-8.4436 1.28979,-1.81735 0.92394,-4.88637 1.88625,-6.97576 0.71277,-1.54759 2.09301,-1.23652 3.59991,-2.93428 1.64386,-1.85205 1.47918,-4.99895 4.12543,-4.80788 5.93785,0.42872 11.1071,1.22293 15.46898,0.3805 3.39892,-0.65645 5.96348,-3.23161 9.2986,-4.57883 2.73114,-1.10325 5.82352,0.0228 9.67932,-1.43161 3.46225,-1.30597 5.74553,-4.15576 8.47506,-6.31122 2.1845,-1.72506 4.904,-2.68501 6.89467,-4.42862 8.11436,-7.10729 13.2194,-18.95217 10.2813,-29.875 -1.43931,-5.35084 -3.59116,-12.51544 -9.2188,-12.875 -2.38272,-0.15224 -0.91333,-2.00083 -9.13462,-2.07642 -1.90354,-0.0171 -2.1381,-2.81549 -3.80148,-3.37143 -2.18554,-0.73045 -3.9684,-0.56503 -5.74967,-1.31224 -1.45097,-0.60865 -1.87987,-2.78778 -3.00173,-3.11491 -1.67514,-0.48846 -3.53846,-0.78721 -4.25799,-1.99571 -1.1055,-1.85675 -0.85829,-4.78322 -3.5906,-5.43652 z m 58.78614,12.99473 c -6.09093,0.78725 -8.44235,1.75931 -8.90377,9.84719 -0.28617,5.01599 -2.94533,10.67273 -4.78373,15.05906 -2.66923,6.36864 -4.61065,14.82838 -7.44354,21.27407 -2.00923,4.5716 -5.00821,7.14587 -6.61896,11.63218 -1.72547,4.80583 -1.03925,6.52274 -2.85673,11.46819 -3.33887,9.08519 -8.23511,18.73773 -10.42452,27.93616 -1.07878,4.53229 -0.15219,4.37426 1.94357,1.71182 7.91064,-10.04961 4.39559,2.44031 8.56545,-3.0928 6.55726,-8.70101 9.6867,-19.79564 17.69239,-29.41304 2.52974,-3.03903 3.52782,-0.57617 6.19149,-2.48 3.6526,-2.61067 4.24633,3.33478 7.20133,2.44849 7.88475,-2.36487 16.98485,-5.05577 22.42159,-8.08371 3.53842,-1.97069 8.41043,-4.92467 11.52204,-9.37625 1.31498,-1.88126 -0.23583,-4.50191 1.42492,-7.23415 1.81579,-2.9873 3.44956,-5.51906 3.5651,-8.02405 0.47532,-10.30577 0.39376,-11.37541 -4.87163,-17.64191 -6.05849,-7.21041 -18.51029,-9.93402 -28.90625,-10.5 -2.20697,-0.12015 -2.64005,-5.92917 -5.71875,-5.53125 z m -124.79141,0.0779 c -6.29432,1.82268 -15.09527,4.85676 -17.18017,11.03451 -0.81183,2.40553 -0.43243,4.16482 -1.2816,6.48554 -2.04672,5.59353 -4.93119,10.94763 -6.09057,16.43332 -2.13805,10.11633 -7.74754,7.64535 -15.5409,8.24044 -4.00193,0.30559 -3.46253,-1.61464 -1.7091,-4.45919 5.84866,-9.48812 13.98452,-28.71293 0.71875,-33.5625 -4.77601,-1.74597 -10.77439,0.19159 -14.06772,2.30783 -3.0452,1.95681 -2.1552,6.44698 -1.73386,11.24375 0.6045,6.88181 -5.70366,15.83941 -8.85467,22.57342 -7.11113,15.19718 -13.83587,27.91557 -21.69201,42.77973 -2.75135,5.20567 0.92979,3.51461 4.44288,0.47748 2.22999,-1.92787 6.25392,-6.2915 9.62,-9.40444 6.77437,-6.26491 -3.6654,6.69082 -4.70168,10.7118 -1.80006,6.9846 7.00635,-8.20927 9.73701,-10.93957 6.17318,-6.17236 -9.45301,15.80799 -3.46027,10.89005 8.98617,-7.37449 11.21066,-22.28148 20.92892,-32.61065 0.96705,-1.02784 2.45014,-1.59095 4.09285,-0.55698 1.76002,1.10781 2.60579,4.0765 4.23755,4.65642 1.63516,0.58113 3.30187,0.0685 4.25922,-0.54503 5.03942,-3.2295 1.13704,2.74788 -1.96452,9.10369 -4.63429,9.49672 -8.23392,15.1152 -12.73731,24.86689 -0.78344,1.69646 -1.43387,5.13084 0.75235,3.39497 3.48274,-2.76531 7.61617,-6.83356 8.98713,-8.42471 3.55941,-4.13106 -1.87681,5.99737 1.24783,2.72535 1.81921,-1.90502 6.07221,-4.52752 7.23708,-5.88986 3.08415,-3.607 -0.50355,4.37598 2.41433,1.69763 0.78337,-0.71906 4.11027,-5.24484 5.59859,-7.68277 4.77139,-7.81572 8.62873,-16.49521 13.11564,-24.63284 2.46484,-4.47032 5.46537,-8.43142 8.10311,-12.80466 3.40515,-5.64557 4.18763,-12.2634 6.04211,-18.72337 1.43281,-4.99113 4.46638,-9.6313 6.39539,-14.33913 0.64078,-1.56385 -2.05795,-1.47544 -4.05462,-2.07791 -1.57318,-0.4747 -1.08193,-3.48459 -2.86174,-2.96921 z m 24.79141,1.07832 c -8.39601,0.45571 -10.4506,5.1234 -10.76183,11.27052 -0.258,5.0956 -2.13871,10.77889 -4.08192,15.47948 -7.70313,18.63371 -17.12849,37.14218 -20.57737,56.98293 -1.67669,9.64565 3.91902,-0.74385 7.15255,-5.01513 1.41422,-1.86809 2.15265,-2.57473 2.08107,0.0947 -0.10286,3.83568 6.12,-9.61533 8.83163,-13.20384 8.32847,-11.02168 14.43146,-23.34675 22.07462,-34.92116 2.23037,-3.37756 4.21245,-8.22436 5.82474,-11.83897 2.60245,-5.83446 3.28761,-10.52518 -4.641,-16.11321 -1.5553,-1.09617 -3.99653,-2.83877 -5.90249,-2.73532 z m 316.92658,2.69315 c -7.04036,0.41676 -13.08374,2.42036 -20.47415,1.95249 -2.82884,-0.17909 -5.65567,-1.08531 -8.73368,-1.48939 -5.23714,-0.68753 -7.08903,5.21131 -9.4202,8.96342 -1.99219,3.20651 2.0925,6.0609 0.7327,9.56783 -4.67749,12.06331 -6.33536,25.38493 -13.2943,36.52009 -1.64453,2.63145 -5.38687,7.22297 -5.65685,11.07979 -0.32237,4.60515 3.54702,7.3138 11.45722,6.74732 11.99553,-0.85904 25.79933,3.78696 35.18143,-5.06595 1.50016,-1.41555 6.64836,-4.98565 2.3355,-5.03561 -7.30319,-0.0846 8.97411,-4.74281 -4.10093,-5.15733 -4.96251,-0.15615 -16.60533,-0.60434 -21.15484,0.35482 -4.96614,1.047 -1.15234,-7.00673 0.44811,-10.50867 2.25403,-4.93202 3.14463,-3.17233 5.34303,-2.75223 5.02319,0.9599 14.62192,0.0174 20.94894,-2.91626 5.83169,-2.704 7.07427,-6.85826 -4.91969,-8.39367 -4.40406,-0.56379 -17.66428,2.77325 -13.94267,-4.03752 2.4032,-4.39801 5.59946,-10.64658 9.23762,-11.95616 7.59419,-2.73358 18.21206,0.59365 23.83618,-3.94117 2.48152,-2.00089 3.82966,-4.72046 5.99154,-5.89618 4.31806,-2.34833 -0.85803,-4.57943 -4.02279,-6.76007 -2.4817,-1.70999 -6.65606,-1.46119 -9.79217,-1.27555 z m -163.67658,5.61935 c -5.81648,0.82032 -3.89053,3.76762 -5.64353,6.34921 -3.91758,5.76932 -2.88842,9.84591 -4.29397,15.05704 -3.42844,12.71105 -8.89555,25.84633 -7.6875,39.21875 0.33644,3.72418 2.41046,6.55357 4.48558,9.83994 1.96836,3.1173 2.94069,-1.80043 4.65963,2.0453 1.53535,3.43498 6.18309,5.32357 8.96397,2.81846 2.31239,-2.08308 4.15662,0.7631 6.47388,-2.16634 3.60492,-4.55731 6.96245,-2.42001 9.60097,-5.85072 1.1239,-1.46133 2.91538,-3.76068 4.22222,-5.49914 7.64979,-10.17637 10.8636,-22.40949 16.65625,-33.8125 3.43257,-6.75712 4.19296,-18.17663 2.23122,-23.09592 -0.94834,-2.37806 -3.81873,-8.22833 -5.42728,-3.25659 -1.83663,5.67666 -3.56166,-3.53398 -5.71019,2.97751 -2.59425,7.86232 -5.73393,13.6027 -8.28125,23.09375 -2.43729,9.08105 -6.47624,18.14334 -12.42207,25.25489 -12.57189,15.03671 -10.8272,-11.15136 -5.45288,-18.91114 5.98906,-8.64739 14.72509,-19.38175 7.5,-30.09375 -2.32016,-3.43989 -6.50114,-4.44458 -9.87505,-3.96875 z m 72.37424,7.465 c 0.98229,-2.07836 2.22372,0.35833 6.91999,-0.42304 9.27428,-1.54307 17.19894,9.03824 11.39322,23.30174 -5.09331,12.51323 -17.53664,20.61936 -28.96875,26.75 -14.12073,7.57244 -10.74411,3.93696 -3.6875,-8.75 7.46307,-13.41772 7.77921,-26.99077 14.34304,-40.8787 z m -182.38027,3.83775 c 2.00292,-2.42212 3.64198,1.77461 5.4707,1.98278 3.94489,0.44905 9.12589,-1.47116 11.55138,-0.46626 3.46487,1.43554 2.6555,5.05717 -4.6723,10.74326 -5.87183,4.55631 -9.61294,9.32974 -16.03125,12.5 -4.68411,2.31366 -22.27841,10.60965 -12.46875,0 6.69766,-7.24387 9.43164,-16.63507 16.15022,-24.75978 z m 66.54369,6.53087 c 6.56584,2.3414 10.61013,1.26156 10.60234,4.44504 -0.0133,5.41761 8.5558,6.42655 -3.39005,11.56512 -5.58544,2.40261 -22.57435,8.97125 -21.59375,6.34375 1.45551,-3.89998 4.3182,-8.78916 6.70392,-13.46042 1.87116,-3.66375 2.28368,-10.81697 7.67754,-8.89349 z"
     id="path3661"
     sodipodi:nodetypes="cssssssssssssssssssssssssssssssssscssssssssssssssssssssssssssssscssssssssssscssssssssssssssssssssssssscsssssssssssssssssscssssssssssssssssssssssssssssssssscsssssssssscssssssssssssssssssssscsssssssssssssssssscssssscsssssscsssss" />
</svg>
